# Memory Recycler 3D - generated game-ready model
# 1 unit = 1 metre | triangles = 236
mtllib MR3D_ArchiveCityKit.mtl
o MemoryStreetLamp_A
v 0.000000 0.000000 -0.380000
v -0.190000 0.000000 -0.329090
v -0.329090 0.000000 -0.190000
v -0.380000 0.000000 -0.000000
v -0.329090 0.000000 0.190000
v -0.190000 0.000000 0.329090
v -0.000000 0.000000 0.380000
v 0.190000 0.000000 0.329090
v 0.329090 0.000000 0.190000
v 0.380000 0.000000 0.000000
v 0.329090 0.000000 -0.190000
v 0.190000 0.000000 -0.329090
v 0.000000 0.350000 -0.380000
v -0.190000 0.350000 -0.329090
v -0.329090 0.350000 -0.190000
v -0.380000 0.350000 -0.000000
v -0.329090 0.350000 0.190000
v -0.190000 0.350000 0.329090
v -0.000000 0.350000 0.380000
v 0.190000 0.350000 0.329090
v 0.329090 0.350000 0.190000
v 0.380000 0.350000 0.000000
v 0.329090 0.350000 -0.190000
v 0.190000 0.350000 -0.329090
v 0.000000 0.300000 -0.120000
v -0.060000 0.300000 -0.103923
v -0.103923 0.300000 -0.060000
v -0.120000 0.300000 -0.000000
v -0.103923 0.300000 0.060000
v -0.060000 0.300000 0.103923
v -0.000000 0.300000 0.120000
v 0.060000 0.300000 0.103923
v 0.103923 0.300000 0.060000
v 0.120000 0.300000 0.000000
v 0.103923 0.300000 -0.060000
v 0.060000 0.300000 -0.103923
v 0.000000 4.700000 -0.120000
v -0.060000 4.700000 -0.103923
v -0.103923 4.700000 -0.060000
v -0.120000 4.700000 -0.000000
v -0.103923 4.700000 0.060000
v -0.060000 4.700000 0.103923
v -0.000000 4.700000 0.120000
v 0.060000 4.700000 0.103923
v 0.103923 4.700000 0.060000
v 0.120000 4.700000 0.000000
v 0.103923 4.700000 -0.060000
v 0.060000 4.700000 -0.103923
v 0.000000 4.700000 -0.085000
v -0.049757 4.704523 -0.068766
v -0.080508 4.707319 -0.026266
v -0.080508 4.707319 0.026266
v -0.049757 4.704523 0.068766
v -0.000000 4.700000 0.085000
v 0.049757 4.695477 0.068766
v 0.080508 4.692681 0.026266
v 0.080508 4.692681 -0.026266
v 0.049757 4.695477 -0.068766
v 0.100000 5.800000 -0.085000
v 0.050243 5.804523 -0.068766
v 0.019492 5.807319 -0.026266
v 0.019492 5.807319 0.026266
v 0.050243 5.804523 0.068766
v 0.100000 5.800000 0.085000
v 0.149757 5.795477 0.068766
v 0.180508 5.792681 0.026266
v 0.180508 5.792681 -0.026266
v 0.149757 5.795477 -0.068766
v 0.050000 5.450000 0.075000
v 0.057247 5.406516 0.060676
v 0.061726 5.379641 0.023176
v 0.061726 5.379641 -0.023176
v 0.057247 5.406516 -0.060676
v 0.050000 5.450000 -0.075000
v 0.042753 5.493484 -0.060676
v 0.038274 5.520359 -0.023176
v 0.038274 5.520359 0.023176
v 0.042753 5.493484 0.060676
v 1.250000 5.650000 0.075000
v 1.257247 5.606516 0.060676
v 1.261726 5.579641 0.023176
v 1.261726 5.579641 -0.023176
v 1.257247 5.606516 -0.060676
v 1.250000 5.650000 -0.075000
v 1.242753 5.693484 -0.060676
v 1.238274 5.720359 -0.023176
v 1.238274 5.720359 0.023176
v 1.242753 5.693484 0.060676
v 0.120000 5.150000 0.045000
v 0.135669 5.122306 0.031820
v 0.142160 5.110834 0.000000
v 0.135669 5.122306 -0.031820
v 0.120000 5.150000 -0.045000
v 0.104331 5.177694 -0.031820
v 0.097840 5.189166 -0.000000
v 0.104331 5.177694 0.031820
v 0.880000 5.580000 0.045000
v 0.895669 5.552306 0.031820
v 0.902160 5.540834 0.000000
v 0.895669 5.552306 -0.031820
v 0.880000 5.580000 -0.045000
v 0.864331 5.607694 -0.031820
v 0.857840 5.619166 -0.000000
v 0.864331 5.607694 0.031820
v 0.959673 5.360000 -0.240577
v 1.676933 5.360000 -0.177825
v 1.640327 5.360000 0.240577
v 0.923067 5.360000 0.177825
v 0.959673 5.680000 -0.240577
v 1.676933 5.680000 -0.177825
v 1.640327 5.680000 0.240577
v 0.923067 5.680000 0.177825
v 1.053191 5.312500 -0.162128
v 1.571212 5.312500 -0.116807
v 1.546809 5.312500 0.162128
v 1.028788 5.312500 0.116807
v 1.053191 5.367500 -0.162128
v 1.571212 5.367500 -0.116807
v 1.546809 5.367500 0.162128
v 1.028788 5.367500 0.116807
v -0.050000 1.375000 -0.157500
v 0.050000 1.375000 -0.157500
v 0.050000 1.375000 -0.102500
v -0.050000 1.375000 -0.102500
v -0.050000 2.025000 -0.157500
v 0.050000 2.025000 -0.157500
v 0.050000 2.025000 -0.102500
v -0.050000 2.025000 -0.102500
v -0.296179 3.425000 -0.014230
v -0.081817 3.425000 -0.063719
v -0.063821 3.425000 0.014230
v -0.278183 3.425000 0.063719
v -0.296179 3.975000 -0.014230
v -0.081817 3.975000 -0.063719
v -0.063821 3.975000 0.014230
v -0.278183 3.975000 0.063719
vn -0.258819 0.000000 -0.965926
vn -0.707107 0.000000 -0.707107
vn -0.965926 0.000000 -0.258819
vn -0.965926 0.000000 0.258819
vn -0.707107 0.000000 0.707107
vn -0.258819 0.000000 0.965926
vn 0.258819 0.000000 0.965926
vn 0.707107 0.000000 0.707107
vn 0.965926 0.000000 0.258819
vn 0.965926 0.000000 -0.258819
vn 0.707107 0.000000 -0.707107
vn 0.258819 0.000000 -0.965926
vn 0.000000 -1.000000 0.000000
vn 0.000000 1.000000 0.000000
vn -0.258819 0.000000 -0.965926
vn -0.707107 0.000000 -0.707107
vn -0.965926 0.000000 -0.258819
vn -0.965926 0.000000 0.258819
vn -0.707107 0.000000 0.707107
vn -0.258819 0.000000 0.965926
vn 0.258819 0.000000 0.965926
vn 0.707107 0.000000 0.707107
vn 0.965926 0.000000 0.258819
vn 0.965926 0.000000 -0.258819
vn 0.707107 0.000000 -0.707107
vn 0.258819 0.000000 -0.965926
vn 0.000000 -1.000000 0.000000
vn 0.000000 1.000000 0.000000
vn -0.307748 0.027977 -0.951057
vn -0.805695 0.073245 -0.587785
vn -0.995893 0.090536 0.000000
vn -0.805695 0.073245 0.587785
vn -0.307748 0.027977 0.951057
vn 0.307748 -0.027977 0.951057
vn 0.805695 -0.073245 0.587785
vn 0.995893 -0.090536 0.000000
vn 0.805695 -0.073245 -0.587785
vn 0.307748 -0.027977 -0.951057
vn -0.090536 -0.995893 0.000000
vn 0.090536 0.995893 -0.000000
vn 0.050802 -0.304812 0.951057
vn 0.133002 -0.798009 0.587785
vn 0.164399 -0.986394 0.000000
vn 0.133002 -0.798009 -0.587785
vn 0.050802 -0.304812 -0.951057
vn -0.050802 0.304812 -0.951057
vn -0.133002 0.798009 -0.587785
vn -0.164399 0.986394 0.000000
vn -0.133002 0.798009 0.587785
vn -0.050802 0.304812 0.951057
vn -0.986394 -0.164399 0.000000
vn 0.986394 0.164399 -0.000000
vn 0.188447 -0.333068 0.923880
vn 0.454950 -0.804098 0.382683
vn 0.454950 -0.804098 -0.382683
vn 0.188447 -0.333068 -0.923880
vn -0.188447 0.333068 -0.923880
vn -0.454950 0.804098 -0.382683
vn -0.454950 0.804098 0.382683
vn -0.188447 0.333068 0.923880
vn -0.870349 -0.492435 -0.000000
vn 0.870349 0.492435 0.000000
vn 0.000000 -1.000000 0.000000
vn 0.000000 1.000000 -0.000000
vn 0.087156 0.000000 -0.996195
vn -0.087156 0.000000 0.996195
vn -0.996195 0.000000 -0.087156
vn 0.996195 -0.000000 0.087156
vn 0.000000 -1.000000 0.000000
vn 0.000000 1.000000 -0.000000
vn 0.087156 0.000000 -0.996195
vn -0.087156 0.000000 0.996195
vn -0.996195 0.000000 -0.087156
vn 0.996195 -0.000000 0.087156
vn 0.000000 -1.000000 0.000000
vn 0.000000 1.000000 0.000000
vn 0.000000 0.000000 -1.000000
vn 0.000000 0.000000 1.000000
vn -1.000000 0.000000 0.000000
vn 1.000000 0.000000 0.000000
vn 0.000000 -1.000000 0.000000
vn 0.000000 1.000000 0.000000
vn -0.224951 0.000000 -0.974370
vn 0.224951 0.000000 0.974370
vn -0.974370 0.000000 0.224951
vn 0.974370 0.000000 -0.224951
s off
g Architecture
usemtl MR_ConcreteDark
f 1//1 2//1 14//1 13//1
f 2//2 3//2 15//2 14//2
f 3//3 4//3 16//3 15//3
f 4//4 5//4 17//4 16//4
f 5//5 6//5 18//5 17//5
f 6//6 7//6 19//6 18//6
f 7//7 8//7 20//7 19//7
f 8//8 9//8 21//8 20//8
f 9//9 10//9 22//9 21//9
f 10//10 11//10 23//10 22//10
f 11//11 12//11 24//11 23//11
f 12//12 1//12 13//12 24//12
f 12//13 11//13 10//13 9//13 8//13 7//13 6//13 5//13 4//13 3//13 2//13 1//13
f 13//14 14//14 15//14 16//14 17//14 18//14 19//14 20//14 21//14 22//14 23//14 24//14
usemtl MR_DarkMetal
f 25//15 26//15 38//15 37//15
f 26//16 27//16 39//16 38//16
f 27//17 28//17 40//17 39//17
f 28//18 29//18 41//18 40//18
f 29//19 30//19 42//19 41//19
f 30//20 31//20 43//20 42//20
f 31//21 32//21 44//21 43//21
f 32//22 33//22 45//22 44//22
f 33//23 34//23 46//23 45//23
f 34//24 35//24 47//24 46//24
f 35//25 36//25 48//25 47//25
f 36//26 25//26 37//26 48//26
f 36//27 35//27 34//27 33//27 32//27 31//27 30//27 29//27 28//27 27//27 26//27 25//27
f 37//28 38//28 39//28 40//28 41//28 42//28 43//28 44//28 45//28 46//28 47//28 48//28
usemtl MR_SecondaryMetal
f 49//29 50//29 60//29 59//29
f 50//30 51//30 61//30 60//30
f 51//31 52//31 62//31 61//31
f 52//32 53//32 63//32 62//32
f 53//33 54//33 64//33 63//33
f 54//34 55//34 65//34 64//34
f 55//35 56//35 66//35 65//35
f 56//36 57//36 67//36 66//36
f 57//37 58//37 68//37 67//37
f 58//38 49//38 59//38 68//38
f 58//39 57//39 56//39 55//39 54//39 53//39 52//39 51//39 50//39 49//39
f 59//40 60//40 61//40 62//40 63//40 64//40 65//40 66//40 67//40 68//40
usemtl MR_DarkMetal
f 69//41 70//41 80//41 79//41
f 70//42 71//42 81//42 80//42
f 71//43 72//43 82//43 81//43
f 72//44 73//44 83//44 82//44
f 73//45 74//45 84//45 83//45
f 74//46 75//46 85//46 84//46
f 75//47 76//47 86//47 85//47
f 76//48 77//48 87//48 86//48
f 77//49 78//49 88//49 87//49
f 78//50 69//50 79//50 88//50
f 78//51 77//51 76//51 75//51 74//51 73//51 72//51 71//51 70//51 69//51
f 79//52 80//52 81//52 82//52 83//52 84//52 85//52 86//52 87//52 88//52
usemtl MR_SecondaryMetal
f 89//53 90//53 98//53 97//53
f 90//54 91//54 99//54 98//54
f 91//55 92//55 100//55 99//55
f 92//56 93//56 101//56 100//56
f 93//57 94//57 102//57 101//57
f 94//58 95//58 103//58 102//58
f 95//59 96//59 104//59 103//59
f 96//60 89//60 97//60 104//60
f 96//61 95//61 94//61 93//61 92//61 91//61 90//61 89//61
f 97//62 98//62 99//62 100//62 101//62 102//62 103//62 104//62
g Lamp
usemtl MR_DarkMetal
f 105//63 106//63 107//63 108//63
f 109//64 112//64 111//64 110//64
f 105//65 109//65 110//65 106//65
f 108//66 107//66 111//66 112//66
f 105//67 108//67 112//67 109//67
f 106//68 110//68 111//68 107//68
g CyanLights
usemtl MR_CyanEmission
f 113//69 114//69 115//69 116//69
f 117//70 120//70 119//70 118//70
f 113//71 117//71 118//71 114//71
f 116//72 115//72 119//72 120//72
f 113//73 116//73 120//73 117//73
f 114//74 118//74 119//74 115//74
usemtl MR_DimCyan
f 121//75 122//75 123//75 124//75
f 125//76 128//76 127//76 126//76
f 121//77 125//77 126//77 122//77
f 124//78 123//78 127//78 128//78
f 121//79 124//79 128//79 125//79
f 122//80 126//80 127//80 123//80
g Damage
usemtl MR_Rust
f 129//81 130//81 131//81 132//81
f 133//82 136//82 135//82 134//82
f 129//83 133//83 134//83 130//83
f 132//84 131//84 135//84 136//84
f 129//85 132//85 136//85 133//85
f 130//86 134//86 135//86 131//86
