# Memory Recycler 3D - generated game-ready model
# 1 unit = 1 metre | triangles = 620
mtllib MR3D_ArchiveCityKit.mtl
o RuinedMidrise_B
v -5.000000 0.000000 -4.000000
v 5.000000 0.000000 -4.000000
v 5.000000 0.000000 4.000000
v -5.000000 0.000000 4.000000
v -5.000000 18.000000 -4.000000
v 5.000000 18.000000 -4.000000
v 5.000000 18.000000 4.000000
v -5.000000 18.000000 4.000000
v -4.000000 8.500000 0.050000
v 4.000000 8.500000 0.050000
v 4.000000 8.500000 4.550000
v -4.000000 8.500000 4.550000
v -4.000000 17.500000 0.050000
v 4.000000 17.500000 0.050000
v 4.000000 17.500000 4.550000
v -4.000000 17.500000 4.550000
v -4.250000 18.000000 -2.900000
v 3.250000 18.000000 -2.900000
v 3.250000 18.000000 3.500000
v -4.250000 18.000000 3.500000
v -4.250000 19.600000 -2.900000
v 3.250000 19.600000 -2.900000
v 3.250000 19.600000 3.500000
v -4.250000 19.600000 3.500000
v -4.730000 0.300000 -4.490000
v -4.270000 0.300000 -4.490000
v -4.270000 0.300000 -4.010000
v -4.730000 0.300000 -4.010000
v -4.730000 17.700000 -4.490000
v -4.270000 17.700000 -4.490000
v -4.270000 17.700000 -4.010000
v -4.730000 17.700000 -4.010000
v -2.830000 0.300000 -4.490000
v -2.370000 0.300000 -4.490000
v -2.370000 0.300000 -4.010000
v -2.830000 0.300000 -4.010000
v -2.830000 17.700000 -4.490000
v -2.370000 17.700000 -4.490000
v -2.370000 17.700000 -4.010000
v -2.830000 17.700000 -4.010000
v -1.130000 0.300000 -4.490000
v -0.670000 0.300000 -4.490000
v -0.670000 0.300000 -4.010000
v -1.130000 0.300000 -4.010000
v -1.130000 17.700000 -4.490000
v -0.670000 17.700000 -4.490000
v -0.670000 17.700000 -4.010000
v -1.130000 17.700000 -4.010000
v 0.670000 0.300000 -4.490000
v 1.130000 0.300000 -4.490000
v 1.130000 0.300000 -4.010000
v 0.670000 0.300000 -4.010000
v 0.670000 17.700000 -4.490000
v 1.130000 17.700000 -4.490000
v 1.130000 17.700000 -4.010000
v 0.670000 17.700000 -4.010000
v 2.370000 0.300000 -4.490000
v 2.830000 0.300000 -4.490000
v 2.830000 0.300000 -4.010000
v 2.370000 0.300000 -4.010000
v 2.370000 17.700000 -4.490000
v 2.830000 17.700000 -4.490000
v 2.830000 17.700000 -4.010000
v 2.370000 17.700000 -4.010000
v 4.270000 0.300000 -4.490000
v 4.730000 0.300000 -4.490000
v 4.730000 0.300000 -4.010000
v 4.270000 0.300000 -4.010000
v 4.270000 17.700000 -4.490000
v 4.730000 17.700000 -4.490000
v 4.730000 17.700000 -4.010000
v 4.270000 17.700000 -4.010000
v -3.975000 2.325000 -4.350000
v -3.425000 2.325000 -4.350000
v -3.425000 2.325000 -4.250000
v -3.975000 2.325000 -4.250000
v -3.975000 3.675000 -4.350000
v -3.425000 3.675000 -4.350000
v -3.425000 3.675000 -4.250000
v -3.975000 3.675000 -4.250000
v -2.075000 2.325000 -4.350000
v -1.525000 2.325000 -4.350000
v -1.525000 2.325000 -4.250000
v -2.075000 2.325000 -4.250000
v -2.075000 3.675000 -4.350000
v -1.525000 3.675000 -4.350000
v -1.525000 3.675000 -4.250000
v -2.075000 3.675000 -4.250000
v -0.275000 2.325000 -4.350000
v 0.275000 2.325000 -4.350000
v 0.275000 2.325000 -4.250000
v -0.275000 2.325000 -4.250000
v -0.275000 3.675000 -4.350000
v 0.275000 3.675000 -4.350000
v 0.275000 3.675000 -4.250000
v -0.275000 3.675000 -4.250000
v 1.525000 2.325000 -4.350000
v 2.075000 2.325000 -4.350000
v 2.075000 2.325000 -4.250000
v 1.525000 2.325000 -4.250000
v 1.525000 3.675000 -4.350000
v 2.075000 3.675000 -4.350000
v 2.075000 3.675000 -4.250000
v 1.525000 3.675000 -4.250000
v 3.425000 2.325000 -4.350000
v 3.975000 2.325000 -4.350000
v 3.975000 2.325000 -4.250000
v 3.425000 2.325000 -4.250000
v 3.425000 3.675000 -4.350000
v 3.975000 3.675000 -4.350000
v 3.975000 3.675000 -4.250000
v 3.425000 3.675000 -4.250000
v -3.975000 5.325000 -4.350000
v -3.425000 5.325000 -4.350000
v -3.425000 5.325000 -4.250000
v -3.975000 5.325000 -4.250000
v -3.975000 6.675000 -4.350000
v -3.425000 6.675000 -4.350000
v -3.425000 6.675000 -4.250000
v -3.975000 6.675000 -4.250000
v -2.075000 5.325000 -4.350000
v -1.525000 5.325000 -4.350000
v -1.525000 5.325000 -4.250000
v -2.075000 5.325000 -4.250000
v -2.075000 6.675000 -4.350000
v -1.525000 6.675000 -4.350000
v -1.525000 6.675000 -4.250000
v -2.075000 6.675000 -4.250000
v -0.275000 5.325000 -4.350000
v 0.275000 5.325000 -4.350000
v 0.275000 5.325000 -4.250000
v -0.275000 5.325000 -4.250000
v -0.275000 6.675000 -4.350000
v 0.275000 6.675000 -4.350000
v 0.275000 6.675000 -4.250000
v -0.275000 6.675000 -4.250000
v 1.525000 5.325000 -4.350000
v 2.075000 5.325000 -4.350000
v 2.075000 5.325000 -4.250000
v 1.525000 5.325000 -4.250000
v 1.525000 6.675000 -4.350000
v 2.075000 6.675000 -4.350000
v 2.075000 6.675000 -4.250000
v 1.525000 6.675000 -4.250000
v 3.425000 5.325000 -4.350000
v 3.975000 5.325000 -4.350000
v 3.975000 5.325000 -4.250000
v 3.425000 5.325000 -4.250000
v 3.425000 6.675000 -4.350000
v 3.975000 6.675000 -4.350000
v 3.975000 6.675000 -4.250000
v 3.425000 6.675000 -4.250000
v -3.975000 8.325000 -4.350000
v -3.425000 8.325000 -4.350000
v -3.425000 8.325000 -4.250000
v -3.975000 8.325000 -4.250000
v -3.975000 9.675000 -4.350000
v -3.425000 9.675000 -4.350000
v -3.425000 9.675000 -4.250000
v -3.975000 9.675000 -4.250000
v -2.075000 8.325000 -4.350000
v -1.525000 8.325000 -4.350000
v -1.525000 8.325000 -4.250000
v -2.075000 8.325000 -4.250000
v -2.075000 9.675000 -4.350000
v -1.525000 9.675000 -4.350000
v -1.525000 9.675000 -4.250000
v -2.075000 9.675000 -4.250000
v -0.275000 8.325000 -4.350000
v 0.275000 8.325000 -4.350000
v 0.275000 8.325000 -4.250000
v -0.275000 8.325000 -4.250000
v -0.275000 9.675000 -4.350000
v 0.275000 9.675000 -4.350000
v 0.275000 9.675000 -4.250000
v -0.275000 9.675000 -4.250000
v 1.525000 8.325000 -4.350000
v 2.075000 8.325000 -4.350000
v 2.075000 8.325000 -4.250000
v 1.525000 8.325000 -4.250000
v 1.525000 9.675000 -4.350000
v 2.075000 9.675000 -4.350000
v 2.075000 9.675000 -4.250000
v 1.525000 9.675000 -4.250000
v 3.425000 8.325000 -4.350000
v 3.975000 8.325000 -4.350000
v 3.975000 8.325000 -4.250000
v 3.425000 8.325000 -4.250000
v 3.425000 9.675000 -4.350000
v 3.975000 9.675000 -4.350000
v 3.975000 9.675000 -4.250000
v 3.425000 9.675000 -4.250000
v -3.975000 11.325000 -4.350000
v -3.425000 11.325000 -4.350000
v -3.425000 11.325000 -4.250000
v -3.975000 11.325000 -4.250000
v -3.975000 12.675000 -4.350000
v -3.425000 12.675000 -4.350000
v -3.425000 12.675000 -4.250000
v -3.975000 12.675000 -4.250000
v -2.075000 11.325000 -4.350000
v -1.525000 11.325000 -4.350000
v -1.525000 11.325000 -4.250000
v -2.075000 11.325000 -4.250000
v -2.075000 12.675000 -4.350000
v -1.525000 12.675000 -4.350000
v -1.525000 12.675000 -4.250000
v -2.075000 12.675000 -4.250000
v -0.275000 11.325000 -4.350000
v 0.275000 11.325000 -4.350000
v 0.275000 11.325000 -4.250000
v -0.275000 11.325000 -4.250000
v -0.275000 12.675000 -4.350000
v 0.275000 12.675000 -4.350000
v 0.275000 12.675000 -4.250000
v -0.275000 12.675000 -4.250000
v 1.525000 11.325000 -4.350000
v 2.075000 11.325000 -4.350000
v 2.075000 11.325000 -4.250000
v 1.525000 11.325000 -4.250000
v 1.525000 12.675000 -4.350000
v 2.075000 12.675000 -4.350000
v 2.075000 12.675000 -4.250000
v 1.525000 12.675000 -4.250000
v 3.425000 11.325000 -4.350000
v 3.975000 11.325000 -4.350000
v 3.975000 11.325000 -4.250000
v 3.425000 11.325000 -4.250000
v 3.425000 12.675000 -4.350000
v 3.975000 12.675000 -4.350000
v 3.975000 12.675000 -4.250000
v 3.425000 12.675000 -4.250000
v -3.975000 14.325000 -4.350000
v -3.425000 14.325000 -4.350000
v -3.425000 14.325000 -4.250000
v -3.975000 14.325000 -4.250000
v -3.975000 15.675000 -4.350000
v -3.425000 15.675000 -4.350000
v -3.425000 15.675000 -4.250000
v -3.975000 15.675000 -4.250000
v -2.075000 14.325000 -4.350000
v -1.525000 14.325000 -4.350000
v -1.525000 14.325000 -4.250000
v -2.075000 14.325000 -4.250000
v -2.075000 15.675000 -4.350000
v -1.525000 15.675000 -4.350000
v -1.525000 15.675000 -4.250000
v -2.075000 15.675000 -4.250000
v -0.275000 14.325000 -4.350000
v 0.275000 14.325000 -4.350000
v 0.275000 14.325000 -4.250000
v -0.275000 14.325000 -4.250000
v -0.275000 15.675000 -4.350000
v 0.275000 15.675000 -4.350000
v 0.275000 15.675000 -4.250000
v -0.275000 15.675000 -4.250000
v 1.525000 14.325000 -4.350000
v 2.075000 14.325000 -4.350000
v 2.075000 14.325000 -4.250000
v 1.525000 14.325000 -4.250000
v 1.525000 15.675000 -4.350000
v 2.075000 15.675000 -4.350000
v 2.075000 15.675000 -4.250000
v 1.525000 15.675000 -4.250000
v 3.425000 14.325000 -4.350000
v 3.975000 14.325000 -4.350000
v 3.975000 14.325000 -4.250000
v 3.425000 14.325000 -4.250000
v 3.425000 15.675000 -4.350000
v 3.975000 15.675000 -4.350000
v 3.975000 15.675000 -4.250000
v 3.425000 15.675000 -4.250000
v -1.350000 0.000000 -4.450000
v 1.350000 0.000000 -4.450000
v 1.350000 0.000000 -4.210000
v -1.350000 0.000000 -4.210000
v -1.350000 4.000000 -4.450000
v 1.350000 4.000000 -4.450000
v 1.350000 4.000000 -4.210000
v -1.350000 4.000000 -4.210000
v -2.050000 4.290000 -4.570000
v 2.050000 4.290000 -4.570000
v 2.050000 4.290000 -4.390000
v -2.050000 4.290000 -4.390000
v -2.050000 4.510000 -4.570000
v 2.050000 4.510000 -4.570000
v 2.050000 4.510000 -4.390000
v -2.050000 4.510000 -4.390000
v -4.200000 0.500000 -4.650000
v -4.270711 0.500000 -4.620711
v -4.300000 0.500000 -4.550000
v -4.270711 0.500000 -4.479289
v -4.200000 0.500000 -4.450000
v -4.129289 0.500000 -4.479289
v -4.100000 0.500000 -4.550000
v -4.129289 0.500000 -4.620711
v -4.200000 12.500000 -4.650000
v -4.270711 12.500000 -4.620711
v -4.300000 12.500000 -4.550000
v -4.270711 12.500000 -4.479289
v -4.200000 12.500000 -4.450000
v -4.129289 12.500000 -4.479289
v -4.100000 12.500000 -4.550000
v -4.129289 12.500000 -4.620711
v -4.200000 12.500000 -4.450000
v -4.151638 12.448414 -4.479289
v -4.131606 12.427046 -4.550000
v -4.151638 12.448414 -4.620711
v -4.200000 12.500000 -4.650000
v -4.248362 12.551586 -4.620711
v -4.268394 12.572954 -4.550000
v -4.248362 12.551586 -4.479289
v -2.600000 14.000000 -4.450000
v -2.551638 13.948414 -4.479289
v -2.531606 13.927046 -4.550000
v -2.551638 13.948414 -4.620711
v -2.600000 14.000000 -4.650000
v -2.648362 14.051586 -4.620711
v -2.668394 14.072954 -4.550000
v -2.648362 14.051586 -4.479289
v 2.026391 14.900000 -4.765326
v 4.001767 14.900000 -4.452457
v 3.973609 14.900000 -4.274674
v 1.998233 14.900000 -4.587543
v 2.026391 17.500000 -4.765326
v 4.001767 17.500000 -4.452457
v 3.973609 17.500000 -4.274674
v 1.998233 17.500000 -4.587543
v -4.505000 0.000000 -5.270000
v -4.370000 0.000000 -5.270000
v -4.370000 0.000000 -5.030000
v -4.505000 0.000000 -5.030000
v -4.505000 0.075000 -5.270000
v -4.370000 0.075000 -5.270000
v -4.370000 0.075000 -5.030000
v -4.505000 0.075000 -5.030000
v -4.092057 0.000000 -4.667788
v -3.908386 0.000000 -4.769598
v -3.762943 0.000000 -4.507212
v -3.946614 0.000000 -4.405402
v -4.092057 0.135000 -4.667788
v -3.908386 0.135000 -4.769598
v -3.762943 0.135000 -4.507212
v -3.946614 0.135000 -4.405402
v -3.645662 0.000000 -5.012039
v -3.494635 0.000000 -5.253732
v -3.189338 0.000000 -5.062961
v -3.340365 0.000000 -4.821268
v -3.645662 0.195000 -5.012039
v -3.494635 0.195000 -5.253732
v -3.189338 0.195000 -5.062961
v -3.340365 0.195000 -4.821268
v -4.379338 0.000000 -4.298387
v -4.360497 0.000000 -4.657893
v -4.240662 0.000000 -4.651613
v -4.259503 0.000000 -4.292107
v -4.379338 0.075000 -4.298387
v -4.360497 0.075000 -4.657893
v -4.240662 0.075000 -4.651613
v -4.259503 0.075000 -4.292107
v -3.900122 0.000000 -4.976301
v -3.778785 0.000000 -5.035482
v -3.699878 0.000000 -4.873699
v -3.821215 0.000000 -4.814518
v -3.900122 0.135000 -4.976301
v -3.778785 0.135000 -5.035482
v -3.699878 0.135000 -4.873699
v -3.821215 0.135000 -4.814518
v -3.448524 0.000000 -4.345318
v -3.328073 0.000000 -4.517340
v -3.131476 0.000000 -4.379682
v -3.251927 0.000000 -4.207660
v -3.448524 0.195000 -4.345318
v -3.328073 0.195000 -4.517340
v -3.131476 0.195000 -4.379682
v -3.251927 0.195000 -4.207660
v -4.346574 0.000000 -4.686460
v -4.316783 0.000000 -4.969899
v -4.018426 0.000000 -4.938540
v -4.048217 0.000000 -4.655101
v -4.346574 0.075000 -4.686460
v -4.316783 0.075000 -4.969899
v -4.018426 0.075000 -4.938540
v -4.048217 0.075000 -4.655101
v -3.908522 0.000000 -4.345359
v -3.577141 0.000000 -4.486022
v -3.436478 0.000000 -4.154641
v -3.767859 0.000000 -4.013978
v -3.908522 0.135000 -4.345359
v -3.577141 0.135000 -4.486022
v -3.436478 0.135000 -4.154641
v -3.767859 0.135000 -4.013978
v -3.251338 0.000000 -4.683749
v -3.168223 0.000000 -4.790130
v -3.073662 0.000000 -4.716251
v -3.156777 0.000000 -4.609870
v -3.251338 0.195000 -4.683749
v -3.168223 0.195000 -4.790130
v -3.073662 0.195000 -4.716251
v -3.156777 0.195000 -4.609870
v -4.160318 0.000000 -5.060372
v -4.127466 0.000000 -5.267786
v -3.949682 0.000000 -5.239628
v -3.982534 0.000000 -5.032214
v -4.160318 0.075000 -5.060372
v -4.127466 0.075000 -5.267786
v -3.949682 0.075000 -5.239628
v -3.982534 0.075000 -5.032214
vn 0.000000 -1.000000 0.000000
vn 0.000000 1.000000 0.000000
vn 0.000000 0.000000 -1.000000
vn 0.000000 0.000000 1.000000
vn -1.000000 0.000000 0.000000
vn 1.000000 0.000000 0.000000
vn 0.000000 -1.000000 0.000000
vn 0.000000 1.000000 0.000000
vn 0.000000 0.000000 -1.000000
vn 0.000000 0.000000 1.000000
vn -1.000000 0.000000 0.000000
vn 1.000000 0.000000 0.000000
vn 0.000000 -1.000000 0.000000
vn 0.000000 1.000000 0.000000
vn 0.000000 0.000000 -1.000000
vn 0.000000 0.000000 1.000000
vn -1.000000 0.000000 0.000000
vn 1.000000 0.000000 0.000000
vn 0.000000 -1.000000 0.000000
vn 0.000000 1.000000 0.000000
vn 0.000000 0.000000 -1.000000
vn 0.000000 0.000000 1.000000
vn -1.000000 0.000000 0.000000
vn 1.000000 0.000000 0.000000
vn 0.000000 -1.000000 0.000000
vn 0.000000 1.000000 0.000000
vn 0.000000 0.000000 -1.000000
vn 0.000000 0.000000 1.000000
vn -1.000000 0.000000 0.000000
vn 1.000000 0.000000 0.000000
vn 0.000000 -1.000000 0.000000
vn 0.000000 1.000000 0.000000
vn 0.000000 0.000000 -1.000000
vn 0.000000 0.000000 1.000000
vn -1.000000 0.000000 0.000000
vn 1.000000 0.000000 0.000000
vn 0.000000 -1.000000 0.000000
vn 0.000000 1.000000 0.000000
vn 0.000000 0.000000 -1.000000
vn 0.000000 0.000000 1.000000
vn -1.000000 0.000000 0.000000
vn 1.000000 0.000000 0.000000
vn 0.000000 -1.000000 0.000000
vn 0.000000 1.000000 0.000000
vn 0.000000 0.000000 -1.000000
vn 0.000000 0.000000 1.000000
vn -1.000000 0.000000 0.000000
vn 1.000000 0.000000 0.000000
vn 0.000000 -1.000000 0.000000
vn 0.000000 1.000000 0.000000
vn 0.000000 0.000000 -1.000000
vn 0.000000 0.000000 1.000000
vn -1.000000 0.000000 0.000000
vn 1.000000 0.000000 0.000000
vn 0.000000 -1.000000 0.000000
vn 0.000000 1.000000 0.000000
vn 0.000000 0.000000 -1.000000
vn 0.000000 0.000000 1.000000
vn -1.000000 0.000000 0.000000
vn 1.000000 0.000000 0.000000
vn 0.000000 -1.000000 0.000000
vn 0.000000 1.000000 0.000000
vn 0.000000 0.000000 -1.000000
vn 0.000000 0.000000 1.000000
vn -1.000000 0.000000 0.000000
vn 1.000000 0.000000 0.000000
vn 0.000000 -1.000000 0.000000
vn 0.000000 1.000000 0.000000
vn 0.000000 0.000000 -1.000000
vn 0.000000 0.000000 1.000000
vn -1.000000 0.000000 0.000000
vn 1.000000 0.000000 0.000000
vn 0.000000 -1.000000 0.000000
vn 0.000000 1.000000 0.000000
vn 0.000000 0.000000 -1.000000
vn 0.000000 0.000000 1.000000
vn -1.000000 0.000000 0.000000
vn 1.000000 0.000000 0.000000
vn 0.000000 -1.000000 0.000000
vn 0.000000 1.000000 0.000000
vn 0.000000 0.000000 -1.000000
vn 0.000000 0.000000 1.000000
vn -1.000000 0.000000 0.000000
vn 1.000000 0.000000 0.000000
vn 0.000000 -1.000000 0.000000
vn 0.000000 1.000000 0.000000
vn 0.000000 0.000000 -1.000000
vn 0.000000 0.000000 1.000000
vn -1.000000 0.000000 0.000000
vn 1.000000 0.000000 0.000000
vn 0.000000 -1.000000 0.000000
vn 0.000000 1.000000 0.000000
vn 0.000000 0.000000 -1.000000
vn 0.000000 0.000000 1.000000
vn -1.000000 0.000000 0.000000
vn 1.000000 0.000000 0.000000
vn 0.000000 -1.000000 0.000000
vn 0.000000 1.000000 0.000000
vn 0.000000 0.000000 -1.000000
vn 0.000000 0.000000 1.000000
vn -1.000000 0.000000 0.000000
vn 1.000000 0.000000 0.000000
vn 0.000000 -1.000000 0.000000
vn 0.000000 1.000000 0.000000
vn 0.000000 0.000000 -1.000000
vn 0.000000 0.000000 1.000000
vn -1.000000 0.000000 0.000000
vn 1.000000 0.000000 0.000000
vn 0.000000 -1.000000 0.000000
vn 0.000000 1.000000 0.000000
vn 0.000000 0.000000 -1.000000
vn 0.000000 0.000000 1.000000
vn -1.000000 0.000000 0.000000
vn 1.000000 0.000000 0.000000
vn 0.000000 -1.000000 0.000000
vn 0.000000 1.000000 0.000000
vn 0.000000 0.000000 -1.000000
vn 0.000000 0.000000 1.000000
vn -1.000000 0.000000 0.000000
vn 1.000000 0.000000 0.000000
vn 0.000000 -1.000000 0.000000
vn 0.000000 1.000000 0.000000
vn 0.000000 0.000000 -1.000000
vn 0.000000 0.000000 1.000000
vn -1.000000 0.000000 0.000000
vn 1.000000 0.000000 0.000000
vn 0.000000 -1.000000 0.000000
vn 0.000000 1.000000 0.000000
vn 0.000000 0.000000 -1.000000
vn 0.000000 0.000000 1.000000
vn -1.000000 0.000000 0.000000
vn 1.000000 0.000000 0.000000
vn 0.000000 -1.000000 0.000000
vn 0.000000 1.000000 0.000000
vn 0.000000 0.000000 -1.000000
vn 0.000000 0.000000 1.000000
vn -1.000000 0.000000 0.000000
vn 1.000000 0.000000 0.000000
vn 0.000000 -1.000000 0.000000
vn 0.000000 1.000000 0.000000
vn 0.000000 0.000000 -1.000000
vn 0.000000 0.000000 1.000000
vn -1.000000 0.000000 0.000000
vn 1.000000 0.000000 0.000000
vn 0.000000 -1.000000 0.000000
vn 0.000000 1.000000 0.000000
vn 0.000000 0.000000 -1.000000
vn 0.000000 0.000000 1.000000
vn -1.000000 0.000000 0.000000
vn 1.000000 0.000000 0.000000
vn 0.000000 -1.000000 0.000000
vn 0.000000 1.000000 0.000000
vn 0.000000 0.000000 -1.000000
vn 0.000000 0.000000 1.000000
vn -1.000000 0.000000 0.000000
vn 1.000000 0.000000 0.000000
vn 0.000000 -1.000000 0.000000
vn 0.000000 1.000000 0.000000
vn 0.000000 0.000000 -1.000000
vn 0.000000 0.000000 1.000000
vn -1.000000 0.000000 0.000000
vn 1.000000 0.000000 0.000000
vn 0.000000 -1.000000 0.000000
vn 0.000000 1.000000 0.000000
vn 0.000000 0.000000 -1.000000
vn 0.000000 0.000000 1.000000
vn -1.000000 0.000000 0.000000
vn 1.000000 0.000000 0.000000
vn 0.000000 -1.000000 0.000000
vn 0.000000 1.000000 0.000000
vn 0.000000 0.000000 -1.000000
vn 0.000000 0.000000 1.000000
vn -1.000000 0.000000 0.000000
vn 1.000000 0.000000 0.000000
vn 0.000000 -1.000000 0.000000
vn 0.000000 1.000000 0.000000
vn 0.000000 0.000000 -1.000000
vn 0.000000 0.000000 1.000000
vn -1.000000 0.000000 0.000000
vn 1.000000 0.000000 0.000000
vn 0.000000 -1.000000 0.000000
vn 0.000000 1.000000 0.000000
vn 0.000000 0.000000 -1.000000
vn 0.000000 0.000000 1.000000
vn -1.000000 0.000000 0.000000
vn 1.000000 0.000000 0.000000
vn 0.000000 -1.000000 0.000000
vn 0.000000 1.000000 0.000000
vn 0.000000 0.000000 -1.000000
vn 0.000000 0.000000 1.000000
vn -1.000000 0.000000 0.000000
vn 1.000000 0.000000 0.000000
vn 0.000000 -1.000000 0.000000
vn 0.000000 1.000000 0.000000
vn 0.000000 0.000000 -1.000000
vn 0.000000 0.000000 1.000000
vn -1.000000 0.000000 0.000000
vn 1.000000 0.000000 0.000000
vn 0.000000 -1.000000 0.000000
vn 0.000000 1.000000 0.000000
vn 0.000000 0.000000 -1.000000
vn 0.000000 0.000000 1.000000
vn -1.000000 0.000000 0.000000
vn 1.000000 0.000000 0.000000
vn 0.000000 -1.000000 0.000000
vn 0.000000 1.000000 0.000000
vn 0.000000 0.000000 -1.000000
vn 0.000000 0.000000 1.000000
vn -1.000000 0.000000 0.000000
vn 1.000000 0.000000 0.000000
vn 0.000000 -1.000000 0.000000
vn 0.000000 1.000000 0.000000
vn 0.000000 0.000000 -1.000000
vn 0.000000 0.000000 1.000000
vn -1.000000 0.000000 0.000000
vn 1.000000 0.000000 0.000000
vn -0.382683 0.000000 -0.923880
vn -0.923880 0.000000 -0.382683
vn -0.923880 0.000000 0.382683
vn -0.382683 0.000000 0.923880
vn 0.382683 0.000000 0.923880
vn 0.923880 0.000000 0.382683
vn 0.923880 0.000000 -0.382683
vn 0.382683 0.000000 -0.923880
vn 0.000000 -1.000000 0.000000
vn 0.000000 1.000000 0.000000
vn 0.261733 -0.279182 0.923880
vn 0.631879 -0.674004 0.382683
vn 0.631879 -0.674004 -0.382683
vn 0.261733 -0.279182 -0.923880
vn -0.261733 0.279182 -0.923880
vn -0.631879 0.674004 -0.382683
vn -0.631879 0.674004 0.382683
vn -0.261733 0.279182 0.923880
vn -0.729537 -0.683941 -0.000000
vn 0.729537 0.683941 0.000000
vn 0.000000 -1.000000 0.000000
vn 0.000000 1.000000 -0.000000
vn 0.156434 0.000000 -0.987688
vn -0.156434 0.000000 0.987688
vn -0.987688 0.000000 -0.156434
vn 0.987688 -0.000000 0.156434
vn 0.000000 -1.000000 0.000000
vn 0.000000 1.000000 0.000000
vn 0.000000 0.000000 -1.000000
vn 0.000000 0.000000 1.000000
vn -1.000000 0.000000 0.000000
vn 1.000000 0.000000 0.000000
vn 0.000000 -1.000000 0.000000
vn 0.000000 1.000000 0.000000
vn -0.484810 0.000000 -0.874620
vn 0.484810 0.000000 0.874620
vn -0.874620 0.000000 0.484810
vn 0.874620 0.000000 -0.484810
vn 0.000000 -1.000000 0.000000
vn -0.000000 1.000000 0.000000
vn -0.848048 0.000000 -0.529919
vn 0.848048 0.000000 0.529919
vn -0.529919 0.000000 0.848048
vn 0.529919 0.000000 -0.848048
vn 0.000000 -1.000000 0.000000
vn -0.000000 1.000000 0.000000
vn -0.998630 0.000000 -0.052336
vn 0.998630 0.000000 0.052336
vn -0.052336 0.000000 0.998630
vn 0.052336 0.000000 -0.998630
vn 0.000000 -1.000000 0.000000
vn 0.000000 1.000000 0.000000
vn -0.438371 0.000000 -0.898794
vn 0.438371 0.000000 0.898794
vn -0.898794 0.000000 0.438371
vn 0.898794 0.000000 -0.438371
vn 0.000000 -1.000000 0.000000
vn -0.000000 1.000000 0.000000
vn -0.819152 0.000000 -0.573576
vn 0.819152 0.000000 0.573576
vn -0.573576 0.000000 0.819152
vn 0.573576 0.000000 -0.819152
vn 0.000000 -1.000000 0.000000
vn -0.000000 1.000000 0.000000
vn -0.994522 0.000000 -0.104528
vn 0.994522 0.000000 0.104528
vn -0.104528 0.000000 0.994522
vn 0.104528 0.000000 -0.994522
vn 0.000000 -1.000000 0.000000
vn 0.000000 1.000000 0.000000
vn -0.390731 0.000000 -0.920505
vn 0.390731 0.000000 0.920505
vn -0.920505 0.000000 0.390731
vn 0.920505 0.000000 -0.390731
vn 0.000000 -1.000000 0.000000
vn -0.000000 1.000000 0.000000
vn -0.788011 0.000000 -0.615661
vn 0.788011 0.000000 0.615661
vn -0.615661 0.000000 0.788011
vn 0.615661 0.000000 -0.788011
vn 0.000000 -1.000000 0.000000
vn -0.000000 1.000000 0.000000
vn -0.987688 0.000000 -0.156434
vn 0.987688 0.000000 0.156434
vn -0.156434 0.000000 0.987688
vn 0.156434 0.000000 -0.987688
s off
g Architecture
usemtl MR_Concrete
f 1//1 2//1 3//1 4//1
f 5//2 8//2 7//2 6//2
f 1//3 5//3 6//3 2//3
f 4//4 3//4 7//4 8//4
f 1//5 4//5 8//5 5//5
f 2//6 6//6 7//6 3//6
usemtl MR_ConcreteDark
f 9//7 10//7 11//7 12//7
f 13//8 16//8 15//8 14//8
f 9//9 13//9 14//9 10//9
f 12//10 11//10 15//10 16//10
f 9//11 12//11 16//11 13//11
f 10//12 14//12 15//12 11//12
f 17//13 18//13 19//13 20//13
f 21//14 24//14 23//14 22//14
f 17//15 21//15 22//15 18//15
f 20//16 19//16 23//16 24//16
f 17//17 20//17 24//17 21//17
f 18//18 22//18 23//18 19//18
g Facade
usemtl MR_SecondaryMetal
f 25//19 26//19 27//19 28//19
f 29//20 32//20 31//20 30//20
f 25//21 29//21 30//21 26//21
f 28//22 27//22 31//22 32//22
f 25//23 28//23 32//23 29//23
f 26//24 30//24 31//24 27//24
f 33//25 34//25 35//25 36//25
f 37//26 40//26 39//26 38//26
f 33//27 37//27 38//27 34//27
f 36//28 35//28 39//28 40//28
f 33//29 36//29 40//29 37//29
f 34//30 38//30 39//30 35//30
f 41//31 42//31 43//31 44//31
f 45//32 48//32 47//32 46//32
f 41//33 45//33 46//33 42//33
f 44//34 43//34 47//34 48//34
f 41//35 44//35 48//35 45//35
f 42//36 46//36 47//36 43//36
f 49//37 50//37 51//37 52//37
f 53//38 56//38 55//38 54//38
f 49//39 53//39 54//39 50//39
f 52//40 51//40 55//40 56//40
f 49//41 52//41 56//41 53//41
f 50//42 54//42 55//42 51//42
f 57//43 58//43 59//43 60//43
f 61//44 64//44 63//44 62//44
f 57//45 61//45 62//45 58//45
f 60//46 59//46 63//46 64//46
f 57//47 60//47 64//47 61//47
f 58//48 62//48 63//48 59//48
f 65//49 66//49 67//49 68//49
f 69//50 72//50 71//50 70//50
f 65//51 69//51 70//51 66//51
f 68//52 67//52 71//52 72//52
f 65//53 68//53 72//53 69//53
f 66//54 70//54 71//54 67//54
g Windows
usemtl MR_DimCyan
f 73//55 74//55 75//55 76//55
f 77//56 80//56 79//56 78//56
f 73//57 77//57 78//57 74//57
f 76//58 75//58 79//58 80//58
f 73//59 76//59 80//59 77//59
f 74//60 78//60 79//60 75//60
usemtl MR_WindowDark
f 81//61 82//61 83//61 84//61
f 85//62 88//62 87//62 86//62
f 81//63 85//63 86//63 82//63
f 84//64 83//64 87//64 88//64
f 81//65 84//65 88//65 85//65
f 82//66 86//66 87//66 83//66
f 89//67 90//67 91//67 92//67
f 93//68 96//68 95//68 94//68
f 89//69 93//69 94//69 90//69
f 92//70 91//70 95//70 96//70
f 89//71 92//71 96//71 93//71
f 90//72 94//72 95//72 91//72
f 97//73 98//73 99//73 100//73
f 101//74 104//74 103//74 102//74
f 97//75 101//75 102//75 98//75
f 100//76 99//76 103//76 104//76
f 97//77 100//77 104//77 101//77
f 98//78 102//78 103//78 99//78
f 105//79 106//79 107//79 108//79
f 109//80 112//80 111//80 110//80
f 105//81 109//81 110//81 106//81
f 108//82 107//82 111//82 112//82
f 105//83 108//83 112//83 109//83
f 106//84 110//84 111//84 107//84
f 113//85 114//85 115//85 116//85
f 117//86 120//86 119//86 118//86
f 113//87 117//87 118//87 114//87
f 116//88 115//88 119//88 120//88
f 113//89 116//89 120//89 117//89
f 114//90 118//90 119//90 115//90
f 121//91 122//91 123//91 124//91
f 125//92 128//92 127//92 126//92
f 121//93 125//93 126//93 122//93
f 124//94 123//94 127//94 128//94
f 121//95 124//95 128//95 125//95
f 122//96 126//96 127//96 123//96
f 129//97 130//97 131//97 132//97
f 133//98 136//98 135//98 134//98
f 129//99 133//99 134//99 130//99
f 132//100 131//100 135//100 136//100
f 129//101 132//101 136//101 133//101
f 130//102 134//102 135//102 131//102
usemtl MR_DimCyan
f 137//103 138//103 139//103 140//103
f 141//104 144//104 143//104 142//104
f 137//105 141//105 142//105 138//105
f 140//106 139//106 143//106 144//106
f 137//107 140//107 144//107 141//107
f 138//108 142//108 143//108 139//108
usemtl MR_WindowDark
f 145//109 146//109 147//109 148//109
f 149//110 152//110 151//110 150//110
f 145//111 149//111 150//111 146//111
f 148//112 147//112 151//112 152//112
f 145//113 148//113 152//113 149//113
f 146//114 150//114 151//114 147//114
f 153//115 154//115 155//115 156//115
f 157//116 160//116 159//116 158//116
f 153//117 157//117 158//117 154//117
f 156//118 155//118 159//118 160//118
f 153//119 156//119 160//119 157//119
f 154//120 158//120 159//120 155//120
f 161//121 162//121 163//121 164//121
f 165//122 168//122 167//122 166//122
f 161//123 165//123 166//123 162//123
f 164//124 163//124 167//124 168//124
f 161//125 164//125 168//125 165//125
f 162//126 166//126 167//126 163//126
f 169//127 170//127 171//127 172//127
f 173//128 176//128 175//128 174//128
f 169//129 173//129 174//129 170//129
f 172//130 171//130 175//130 176//130
f 169//131 172//131 176//131 173//131
f 170//132 174//132 175//132 171//132
f 177//133 178//133 179//133 180//133
f 181//134 184//134 183//134 182//134
f 177//135 181//135 182//135 178//135
f 180//136 179//136 183//136 184//136
f 177//137 180//137 184//137 181//137
f 178//138 182//138 183//138 179//138
f 185//139 186//139 187//139 188//139
f 189//140 192//140 191//140 190//140
f 185//141 189//141 190//141 186//141
f 188//142 187//142 191//142 192//142
f 185//143 188//143 192//143 189//143
f 186//144 190//144 191//144 187//144
f 193//145 194//145 195//145 196//145
f 197//146 200//146 199//146 198//146
f 193//147 197//147 198//147 194//147
f 196//148 195//148 199//148 200//148
f 193//149 196//149 200//149 197//149
f 194//150 198//150 199//150 195//150
usemtl MR_DimCyan
f 201//151 202//151 203//151 204//151
f 205//152 208//152 207//152 206//152
f 201//153 205//153 206//153 202//153
f 204//154 203//154 207//154 208//154
f 201//155 204//155 208//155 205//155
f 202//156 206//156 207//156 203//156
usemtl MR_WindowDark
f 209//157 210//157 211//157 212//157
f 213//158 216//158 215//158 214//158
f 209//159 213//159 214//159 210//159
f 212//160 211//160 215//160 216//160
f 209//161 212//161 216//161 213//161
f 210//162 214//162 215//162 211//162
f 217//163 218//163 219//163 220//163
f 221//164 224//164 223//164 222//164
f 217//165 221//165 222//165 218//165
f 220//166 219//166 223//166 224//166
f 217//167 220//167 224//167 221//167
f 218//168 222//168 223//168 219//168
f 225//169 226//169 227//169 228//169
f 229//170 232//170 231//170 230//170
f 225//171 229//171 230//171 226//171
f 228//172 227//172 231//172 232//172
f 225//173 228//173 232//173 229//173
f 226//174 230//174 231//174 227//174
f 233//175 234//175 235//175 236//175
f 237//176 240//176 239//176 238//176
f 233//177 237//177 238//177 234//177
f 236//178 235//178 239//178 240//178
f 233//179 236//179 240//179 237//179
f 234//180 238//180 239//180 235//180
f 241//181 242//181 243//181 244//181
f 245//182 248//182 247//182 246//182
f 241//183 245//183 246//183 242//183
f 244//184 243//184 247//184 248//184
f 241//185 244//185 248//185 245//185
f 242//186 246//186 247//186 243//186
f 249//187 250//187 251//187 252//187
f 253//188 256//188 255//188 254//188
f 249//189 253//189 254//189 250//189
f 252//190 251//190 255//190 256//190
f 249//191 252//191 256//191 253//191
f 250//192 254//192 255//192 251//192
f 257//193 258//193 259//193 260//193
f 261//194 264//194 263//194 262//194
f 257//195 261//195 262//195 258//195
f 260//196 259//196 263//196 264//196
f 257//197 260//197 264//197 261//197
f 258//198 262//198 263//198 259//198
usemtl MR_DimCyan
f 265//199 266//199 267//199 268//199
f 269//200 272//200 271//200 270//200
f 265//201 269//201 270//201 266//201
f 268//202 267//202 271//202 272//202
f 265//203 268//203 272//203 269//203
f 266//204 270//204 271//204 267//204
g Entrance
usemtl MR_WindowDark
f 273//205 274//205 275//205 276//205
f 277//206 280//206 279//206 278//206
f 273//207 277//207 278//207 274//207
f 276//208 275//208 279//208 280//208
f 273//209 276//209 280//209 277//209
f 274//210 278//210 279//210 275//210
g CyanLights
usemtl MR_CyanEmission
f 281//211 282//211 283//211 284//211
f 285//212 288//212 287//212 286//212
f 281//213 285//213 286//213 282//213
f 284//214 283//214 287//214 288//214
f 281//215 284//215 288//215 285//215
f 282//216 286//216 287//216 283//216
g Pipes
usemtl MR_Rust
f 289//217 290//217 298//217 297//217
f 290//218 291//218 299//218 298//218
f 291//219 292//219 300//219 299//219
f 292//220 293//220 301//220 300//220
f 293//221 294//221 302//221 301//221
f 294//222 295//222 303//222 302//222
f 295//223 296//223 304//223 303//223
f 296//224 289//224 297//224 304//224
f 296//225 295//225 294//225 293//225 292//225 291//225 290//225 289//225
f 297//226 298//226 299//226 300//226 301//226 302//226 303//226 304//226
f 305//227 306//227 314//227 313//227
f 306//228 307//228 315//228 314//228
f 307//229 308//229 316//229 315//229
f 308//230 309//230 317//230 316//230
f 309//231 310//231 318//231 317//231
f 310//232 311//232 319//232 318//232
f 311//233 312//233 320//233 319//233
f 312//234 305//234 313//234 320//234
f 312//235 311//235 310//235 309//235 308//235 307//235 306//235 305//235
f 313//236 314//236 315//236 316//236 317//236 318//236 319//236 320//236
g Damage
f 321//237 322//237 323//237 324//237
f 325//238 328//238 327//238 326//238
f 321//239 325//239 326//239 322//239
f 324//240 323//240 327//240 328//240
f 321//241 324//241 328//241 325//241
f 322//242 326//242 327//242 323//242
g Debris
f 329//243 330//243 331//243 332//243
f 333//244 336//244 335//244 334//244
f 329//245 333//245 334//245 330//245
f 332//246 331//246 335//246 336//246
f 329//247 332//247 336//247 333//247
f 330//248 334//248 335//248 331//248
usemtl MR_Debris
f 337//249 338//249 339//249 340//249
f 341//250 344//250 343//250 342//250
f 337//251 341//251 342//251 338//251
f 340//252 339//252 343//252 344//252
f 337//253 340//253 344//253 341//253
f 338//254 342//254 343//254 339//254
f 345//255 346//255 347//255 348//255
f 349//256 352//256 351//256 350//256
f 345//257 349//257 350//257 346//257
f 348//258 347//258 351//258 352//258
f 345//259 348//259 352//259 349//259
f 346//260 350//260 351//260 347//260
f 353//261 354//261 355//261 356//261
f 357//262 360//262 359//262 358//262
f 353//263 357//263 358//263 354//263
f 356//264 355//264 359//264 360//264
f 353//265 356//265 360//265 357//265
f 354//266 358//266 359//266 355//266
usemtl MR_Rust
f 361//267 362//267 363//267 364//267
f 365//268 368//268 367//268 366//268
f 361//269 365//269 366//269 362//269
f 364//270 363//270 367//270 368//270
f 361//271 364//271 368//271 365//271
f 362//272 366//272 367//272 363//272
usemtl MR_Debris
f 369//273 370//273 371//273 372//273
f 373//274 376//274 375//274 374//274
f 369//275 373//275 374//275 370//275
f 372//276 371//276 375//276 376//276
f 369//277 372//277 376//277 373//277
f 370//278 374//278 375//278 371//278
f 377//279 378//279 379//279 380//279
f 381//280 384//280 383//280 382//280
f 377//281 381//281 382//281 378//281
f 380//282 379//282 383//282 384//282
f 377//283 380//283 384//283 381//283
f 378//284 382//284 383//284 379//284
f 385//285 386//285 387//285 388//285
f 389//286 392//286 391//286 390//286
f 385//287 389//287 390//287 386//287
f 388//288 387//288 391//288 392//288
f 385//289 388//289 392//289 389//289
f 386//290 390//290 391//290 387//290
usemtl MR_Rust
f 393//291 394//291 395//291 396//291
f 397//292 400//292 399//292 398//292
f 393//293 397//293 398//293 394//293
f 396//294 395//294 399//294 400//294
f 393//295 396//295 400//295 397//295
f 394//296 398//296 399//296 395//296
usemtl MR_Debris
f 401//297 402//297 403//297 404//297
f 405//298 408//298 407//298 406//298
f 401//299 405//299 406//299 402//299
f 404//300 403//300 407//300 408//300
f 401//301 404//301 408//301 405//301
f 402//302 406//302 407//302 403//302
