# Memory Recycler 3D - generated game-ready model
# 1 unit = 1 metre | triangles = 424
mtllib MR3D_ArchiveCityKit.mtl
o RuinedLowrise_A
v -6.000000 0.000000 -4.500000
v 6.000000 0.000000 -4.500000
v 6.000000 0.000000 4.500000
v -6.000000 0.000000 4.500000
v -6.000000 9.000000 -4.500000
v 6.000000 9.000000 -4.500000
v 6.000000 9.000000 4.500000
v -6.000000 9.000000 4.500000
v -5.250000 9.000000 -3.000000
v 3.250000 9.000000 -3.000000
v 3.250000 9.000000 4.000000
v -5.250000 9.000000 4.000000
v -5.250000 10.000000 -3.000000
v 3.250000 10.000000 -3.000000
v 3.250000 10.000000 4.000000
v -5.250000 10.000000 4.000000
v 4.000000 0.000000 -2.000000
v 7.000000 0.000000 -2.000000
v 7.000000 0.000000 4.000000
v 4.000000 0.000000 4.000000
v 4.000000 5.600000 -2.000000
v 7.000000 5.600000 -2.000000
v 7.000000 5.600000 4.000000
v 4.000000 5.600000 4.000000
v -5.630000 0.500000 -4.920000
v -5.170000 0.500000 -4.920000
v -5.170000 0.500000 -4.440000
v -5.630000 0.500000 -4.440000
v -5.630000 8.900000 -4.920000
v -5.170000 8.900000 -4.920000
v -5.170000 8.900000 -4.440000
v -5.630000 8.900000 -4.440000
v -3.230000 0.500000 -4.920000
v -2.770000 0.500000 -4.920000
v -2.770000 0.500000 -4.440000
v -3.230000 0.500000 -4.440000
v -3.230000 8.900000 -4.920000
v -2.770000 8.900000 -4.920000
v -2.770000 8.900000 -4.440000
v -3.230000 8.900000 -4.440000
v -1.030000 0.500000 -4.920000
v -0.570000 0.500000 -4.920000
v -0.570000 0.500000 -4.440000
v -1.030000 0.500000 -4.440000
v -1.030000 8.900000 -4.920000
v -0.570000 8.900000 -4.920000
v -0.570000 8.900000 -4.440000
v -1.030000 8.900000 -4.440000
v 1.170000 0.500000 -4.920000
v 1.630000 0.500000 -4.920000
v 1.630000 0.500000 -4.440000
v 1.170000 0.500000 -4.440000
v 1.170000 8.900000 -4.920000
v 1.630000 8.900000 -4.920000
v 1.630000 8.900000 -4.440000
v 1.170000 8.900000 -4.440000
v 3.370000 0.500000 -4.920000
v 3.830000 0.500000 -4.920000
v 3.830000 0.500000 -4.440000
v 3.370000 0.500000 -4.440000
v 3.370000 8.900000 -4.920000
v 3.830000 8.900000 -4.920000
v 3.830000 8.900000 -4.440000
v 3.370000 8.900000 -4.440000
v 5.170000 0.500000 -4.920000
v 5.630000 0.500000 -4.920000
v 5.630000 0.500000 -4.440000
v 5.170000 0.500000 -4.440000
v 5.170000 8.900000 -4.920000
v 5.630000 8.900000 -4.920000
v 5.630000 8.900000 -4.440000
v 5.170000 8.900000 -4.440000
v -4.560000 2.225000 -4.670000
v -3.840000 2.225000 -4.670000
v -3.840000 2.225000 -4.570000
v -4.560000 2.225000 -4.570000
v -4.560000 3.775000 -4.670000
v -3.840000 3.775000 -4.670000
v -3.840000 3.775000 -4.570000
v -4.560000 3.775000 -4.570000
v -2.260000 2.225000 -4.670000
v -1.540000 2.225000 -4.670000
v -1.540000 2.225000 -4.570000
v -2.260000 2.225000 -4.570000
v -2.260000 3.775000 -4.670000
v -1.540000 3.775000 -4.670000
v -1.540000 3.775000 -4.570000
v -2.260000 3.775000 -4.570000
v 0.040000 2.225000 -4.670000
v 0.760000 2.225000 -4.670000
v 0.760000 2.225000 -4.570000
v 0.040000 2.225000 -4.570000
v 0.040000 3.775000 -4.670000
v 0.760000 3.775000 -4.670000
v 0.760000 3.775000 -4.570000
v 0.040000 3.775000 -4.570000
v 2.340000 2.225000 -4.670000
v 3.060000 2.225000 -4.670000
v 3.060000 2.225000 -4.570000
v 2.340000 2.225000 -4.570000
v 2.340000 3.775000 -4.670000
v 3.060000 3.775000 -4.670000
v 3.060000 3.775000 -4.570000
v 2.340000 3.775000 -4.570000
v 4.340000 2.225000 -4.670000
v 5.060000 2.225000 -4.670000
v 5.060000 2.225000 -4.570000
v 4.340000 2.225000 -4.570000
v 4.340000 3.775000 -4.670000
v 5.060000 3.775000 -4.670000
v 5.060000 3.775000 -4.570000
v 4.340000 3.775000 -4.570000
v -4.560000 5.525000 -4.670000
v -3.840000 5.525000 -4.670000
v -3.840000 5.525000 -4.570000
v -4.560000 5.525000 -4.570000
v -4.560000 7.075000 -4.670000
v -3.840000 7.075000 -4.670000
v -3.840000 7.075000 -4.570000
v -4.560000 7.075000 -4.570000
v -2.260000 5.525000 -4.670000
v -1.540000 5.525000 -4.670000
v -1.540000 5.525000 -4.570000
v -2.260000 5.525000 -4.570000
v -2.260000 7.075000 -4.670000
v -1.540000 7.075000 -4.670000
v -1.540000 7.075000 -4.570000
v -2.260000 7.075000 -4.570000
v 0.040000 5.525000 -4.670000
v 0.760000 5.525000 -4.670000
v 0.760000 5.525000 -4.570000
v 0.040000 5.525000 -4.570000
v 0.040000 7.075000 -4.670000
v 0.760000 7.075000 -4.670000
v 0.760000 7.075000 -4.570000
v 0.040000 7.075000 -4.570000
v 2.340000 5.525000 -4.670000
v 3.060000 5.525000 -4.670000
v 3.060000 5.525000 -4.570000
v 2.340000 5.525000 -4.570000
v 2.340000 7.075000 -4.670000
v 3.060000 7.075000 -4.670000
v 3.060000 7.075000 -4.570000
v 2.340000 7.075000 -4.570000
v 4.340000 5.525000 -4.670000
v 5.060000 5.525000 -4.670000
v 5.060000 5.525000 -4.570000
v 4.340000 5.525000 -4.570000
v 4.340000 7.075000 -4.670000
v 5.060000 7.075000 -4.670000
v 5.060000 7.075000 -4.570000
v 4.340000 7.075000 -4.570000
v -4.800000 0.000000 -4.770000
v -2.600000 0.000000 -4.770000
v -2.600000 0.000000 -4.530000
v -4.800000 0.000000 -4.530000
v -4.800000 3.400000 -4.770000
v -2.600000 3.400000 -4.770000
v -2.600000 3.400000 -4.530000
v -4.800000 3.400000 -4.530000
v -4.900000 3.430000 -4.870000
v -2.500000 3.430000 -4.870000
v -2.500000 3.430000 -4.730000
v -4.900000 3.430000 -4.730000
v -4.900000 3.570000 -4.870000
v -2.500000 3.570000 -4.870000
v -2.500000 3.570000 -4.730000
v -4.900000 3.570000 -4.730000
v 5.100000 0.500000 -4.930000
v 5.022218 0.500000 -4.897782
v 4.990000 0.500000 -4.820000
v 5.022218 0.500000 -4.742218
v 5.100000 0.500000 -4.710000
v 5.177782 0.500000 -4.742218
v 5.210000 0.500000 -4.820000
v 5.177782 0.500000 -4.897782
v 5.100000 7.800000 -4.930000
v 5.022218 7.800000 -4.897782
v 4.990000 7.800000 -4.820000
v 5.022218 7.800000 -4.742218
v 5.100000 7.800000 -4.710000
v 5.177782 7.800000 -4.742218
v 5.210000 7.800000 -4.820000
v 5.177782 7.800000 -4.897782
v 0.600000 9.750000 0.100000
v 3.000000 9.750000 0.100000
v 3.000000 9.750000 1.900000
v 0.600000 9.750000 1.900000
v 0.600000 10.850000 0.100000
v 3.000000 10.850000 0.100000
v 3.000000 10.850000 1.900000
v 0.600000 10.850000 1.900000
v -6.142914 9.725000 -3.093181
v -3.706988 9.725000 -3.655559
v -3.257086 9.725000 -1.706819
v -5.693012 9.725000 -1.144441
v -6.142914 10.075000 -3.093181
v -3.706988 10.075000 -3.655559
v -3.257086 10.075000 -1.706819
v -5.693012 10.075000 -1.144441
v 2.748000 0.000000 -5.708000
v 2.892000 0.000000 -5.708000
v 2.892000 0.000000 -5.452000
v 2.748000 0.000000 -5.452000
v 2.748000 0.080000 -5.708000
v 2.892000 0.080000 -5.708000
v 2.892000 0.080000 -5.452000
v 2.748000 0.080000 -5.452000
v 3.188473 0.000000 -5.065640
v 3.384388 0.000000 -5.174238
v 3.539527 0.000000 -4.894360
v 3.343612 0.000000 -4.785762
v 3.188473 0.144000 -5.065640
v 3.384388 0.144000 -5.174238
v 3.539527 0.144000 -4.894360
v 3.343612 0.144000 -4.785762
v 3.664627 0.000000 -5.432841
v 3.825722 0.000000 -5.690648
v 4.151373 0.000000 -5.487159
v 3.990278 0.000000 -5.229352
v 3.664627 0.208000 -5.432841
v 3.825722 0.208000 -5.690648
v 4.151373 0.208000 -5.487159
v 3.990278 0.208000 -5.229352
v 2.882039 0.000000 -4.671613
v 2.902136 0.000000 -5.055086
v 3.029961 0.000000 -5.048387
v 3.009864 0.000000 -4.664914
v 2.882039 0.080000 -4.671613
v 2.902136 0.080000 -5.055086
v 3.029961 0.080000 -5.048387
v 3.009864 0.080000 -4.664914
v 3.393203 0.000000 -5.394722
v 3.522630 0.000000 -5.457847
v 3.606797 0.000000 -5.285278
v 3.477370 0.000000 -5.222153
v 3.393203 0.144000 -5.394722
v 3.522630 0.144000 -5.457847
v 3.606797 0.144000 -5.285278
v 3.477370 0.144000 -5.222153
v 3.874908 0.000000 -4.721673
v 4.003389 0.000000 -4.905163
v 4.213092 0.000000 -4.758327
v 4.084611 0.000000 -4.574837
v 3.874908 0.208000 -4.721673
v 4.003389 0.208000 -4.905163
v 4.213092 0.208000 -4.758327
v 4.084611 0.208000 -4.574837
v 2.916988 0.000000 -5.085557
v 2.948765 0.000000 -5.387892
v 3.267012 0.000000 -5.354443
v 3.235235 0.000000 -5.052108
v 2.916988 0.080000 -5.085557
v 2.948765 0.080000 -5.387892
v 3.267012 0.080000 -5.354443
v 3.235235 0.080000 -5.052108
v 3.384243 0.000000 -4.721717
v 3.737717 0.000000 -4.871757
v 3.887757 0.000000 -4.518283
v 3.534283 0.000000 -4.368243
v 3.384243 0.144000 -4.721717
v 3.737717 0.144000 -4.871757
v 3.887757 0.144000 -4.518283
v 3.534283 0.144000 -4.368243
v 4.085240 0.000000 -5.082666
v 4.173895 0.000000 -5.196139
v 4.274760 0.000000 -5.117334
v 4.186105 0.000000 -5.003861
v 4.085240 0.208000 -5.082666
v 4.173895 0.208000 -5.196139
v 4.274760 0.208000 -5.117334
v 4.186105 0.208000 -5.003861
v 3.115661 0.000000 -5.484397
v 3.150703 0.000000 -5.705639
v 3.340339 0.000000 -5.675603
v 3.305297 0.000000 -5.454361
v 3.115661 0.080000 -5.484397
v 3.150703 0.080000 -5.705639
v 3.340339 0.080000 -5.675603
v 3.305297 0.080000 -5.454361
vn 0.000000 -1.000000 0.000000
vn 0.000000 1.000000 0.000000
vn 0.000000 0.000000 -1.000000
vn 0.000000 0.000000 1.000000
vn -1.000000 0.000000 0.000000
vn 1.000000 0.000000 0.000000
vn 0.000000 -1.000000 0.000000
vn 0.000000 1.000000 0.000000
vn 0.000000 0.000000 -1.000000
vn 0.000000 0.000000 1.000000
vn -1.000000 0.000000 0.000000
vn 1.000000 0.000000 0.000000
vn 0.000000 -1.000000 0.000000
vn 0.000000 1.000000 0.000000
vn 0.000000 0.000000 -1.000000
vn 0.000000 0.000000 1.000000
vn -1.000000 0.000000 0.000000
vn 1.000000 0.000000 0.000000
vn 0.000000 -1.000000 0.000000
vn 0.000000 1.000000 0.000000
vn 0.000000 0.000000 -1.000000
vn 0.000000 0.000000 1.000000
vn -1.000000 0.000000 0.000000
vn 1.000000 0.000000 0.000000
vn 0.000000 -1.000000 0.000000
vn 0.000000 1.000000 0.000000
vn 0.000000 0.000000 -1.000000
vn 0.000000 0.000000 1.000000
vn -1.000000 0.000000 0.000000
vn 1.000000 0.000000 0.000000
vn 0.000000 -1.000000 0.000000
vn 0.000000 1.000000 0.000000
vn 0.000000 0.000000 -1.000000
vn 0.000000 0.000000 1.000000
vn -1.000000 0.000000 0.000000
vn 1.000000 0.000000 0.000000
vn 0.000000 -1.000000 0.000000
vn 0.000000 1.000000 0.000000
vn 0.000000 0.000000 -1.000000
vn 0.000000 0.000000 1.000000
vn -1.000000 0.000000 0.000000
vn 1.000000 0.000000 0.000000
vn 0.000000 -1.000000 0.000000
vn 0.000000 1.000000 0.000000
vn 0.000000 0.000000 -1.000000
vn 0.000000 0.000000 1.000000
vn -1.000000 0.000000 0.000000
vn 1.000000 0.000000 0.000000
vn 0.000000 -1.000000 0.000000
vn 0.000000 1.000000 0.000000
vn 0.000000 0.000000 -1.000000
vn 0.000000 0.000000 1.000000
vn -1.000000 0.000000 0.000000
vn 1.000000 0.000000 0.000000
vn 0.000000 -1.000000 0.000000
vn 0.000000 1.000000 0.000000
vn 0.000000 0.000000 -1.000000
vn 0.000000 0.000000 1.000000
vn -1.000000 0.000000 0.000000
vn 1.000000 0.000000 0.000000
vn 0.000000 -1.000000 0.000000
vn 0.000000 1.000000 0.000000
vn 0.000000 0.000000 -1.000000
vn 0.000000 0.000000 1.000000
vn -1.000000 0.000000 0.000000
vn 1.000000 0.000000 0.000000
vn 0.000000 -1.000000 0.000000
vn 0.000000 1.000000 0.000000
vn 0.000000 0.000000 -1.000000
vn 0.000000 0.000000 1.000000
vn -1.000000 0.000000 0.000000
vn 1.000000 0.000000 0.000000
vn 0.000000 -1.000000 0.000000
vn 0.000000 1.000000 0.000000
vn 0.000000 0.000000 -1.000000
vn 0.000000 0.000000 1.000000
vn -1.000000 0.000000 0.000000
vn 1.000000 0.000000 0.000000
vn 0.000000 -1.000000 0.000000
vn 0.000000 1.000000 0.000000
vn 0.000000 0.000000 -1.000000
vn 0.000000 0.000000 1.000000
vn -1.000000 0.000000 0.000000
vn 1.000000 0.000000 0.000000
vn 0.000000 -1.000000 0.000000
vn 0.000000 1.000000 0.000000
vn 0.000000 0.000000 -1.000000
vn 0.000000 0.000000 1.000000
vn -1.000000 0.000000 0.000000
vn 1.000000 0.000000 0.000000
vn 0.000000 -1.000000 0.000000
vn 0.000000 1.000000 0.000000
vn 0.000000 0.000000 -1.000000
vn 0.000000 0.000000 1.000000
vn -1.000000 0.000000 0.000000
vn 1.000000 0.000000 0.000000
vn 0.000000 -1.000000 0.000000
vn 0.000000 1.000000 0.000000
vn 0.000000 0.000000 -1.000000
vn 0.000000 0.000000 1.000000
vn -1.000000 0.000000 0.000000
vn 1.000000 0.000000 0.000000
vn 0.000000 -1.000000 0.000000
vn 0.000000 1.000000 0.000000
vn 0.000000 0.000000 -1.000000
vn 0.000000 0.000000 1.000000
vn -1.000000 0.000000 0.000000
vn 1.000000 0.000000 0.000000
vn 0.000000 -1.000000 0.000000
vn 0.000000 1.000000 0.000000
vn 0.000000 0.000000 -1.000000
vn 0.000000 0.000000 1.000000
vn -1.000000 0.000000 0.000000
vn 1.000000 0.000000 0.000000
vn 0.000000 -1.000000 0.000000
vn 0.000000 1.000000 0.000000
vn 0.000000 0.000000 -1.000000
vn 0.000000 0.000000 1.000000
vn -1.000000 0.000000 0.000000
vn 1.000000 0.000000 0.000000
vn 0.000000 -1.000000 0.000000
vn 0.000000 1.000000 0.000000
vn 0.000000 0.000000 -1.000000
vn 0.000000 0.000000 1.000000
vn -1.000000 0.000000 0.000000
vn 1.000000 0.000000 0.000000
vn -0.382683 0.000000 -0.923880
vn -0.923880 0.000000 -0.382683
vn -0.923880 0.000000 0.382683
vn -0.382683 0.000000 0.923880
vn 0.382683 0.000000 0.923880
vn 0.923880 0.000000 0.382683
vn 0.923880 0.000000 -0.382683
vn 0.382683 0.000000 -0.923880
vn 0.000000 -1.000000 0.000000
vn 0.000000 1.000000 0.000000
vn 0.000000 -1.000000 0.000000
vn 0.000000 1.000000 0.000000
vn 0.000000 0.000000 -1.000000
vn 0.000000 0.000000 1.000000
vn -1.000000 0.000000 0.000000
vn 1.000000 0.000000 0.000000
vn 0.000000 -1.000000 0.000000
vn 0.000000 1.000000 0.000000
vn -0.224951 0.000000 -0.974370
vn 0.224951 0.000000 0.974370
vn -0.974370 0.000000 0.224951
vn 0.974370 0.000000 -0.224951
vn 0.000000 -1.000000 0.000000
vn 0.000000 1.000000 0.000000
vn 0.000000 0.000000 -1.000000
vn 0.000000 0.000000 1.000000
vn -1.000000 0.000000 0.000000
vn 1.000000 0.000000 0.000000
vn 0.000000 -1.000000 0.000000
vn 0.000000 1.000000 0.000000
vn -0.484810 0.000000 -0.874620
vn 0.484810 0.000000 0.874620
vn -0.874620 0.000000 0.484810
vn 0.874620 0.000000 -0.484810
vn 0.000000 -1.000000 0.000000
vn -0.000000 1.000000 0.000000
vn -0.848048 0.000000 -0.529919
vn 0.848048 0.000000 0.529919
vn -0.529919 0.000000 0.848048
vn 0.529919 0.000000 -0.848048
vn 0.000000 -1.000000 0.000000
vn -0.000000 1.000000 0.000000
vn -0.998630 0.000000 -0.052336
vn 0.998630 0.000000 0.052336
vn -0.052336 0.000000 0.998630
vn 0.052336 0.000000 -0.998630
vn 0.000000 -1.000000 0.000000
vn 0.000000 1.000000 0.000000
vn -0.438371 0.000000 -0.898794
vn 0.438371 0.000000 0.898794
vn -0.898794 0.000000 0.438371
vn 0.898794 0.000000 -0.438371
vn 0.000000 -1.000000 0.000000
vn -0.000000 1.000000 0.000000
vn -0.819152 0.000000 -0.573576
vn 0.819152 0.000000 0.573576
vn -0.573576 0.000000 0.819152
vn 0.573576 0.000000 -0.819152
vn 0.000000 -1.000000 0.000000
vn -0.000000 1.000000 0.000000
vn -0.994522 0.000000 -0.104528
vn 0.994522 0.000000 0.104528
vn -0.104528 0.000000 0.994522
vn 0.104528 0.000000 -0.994522
vn 0.000000 -1.000000 0.000000
vn 0.000000 1.000000 0.000000
vn -0.390731 0.000000 -0.920505
vn 0.390731 0.000000 0.920505
vn -0.920505 0.000000 0.390731
vn 0.920505 0.000000 -0.390731
vn 0.000000 -1.000000 0.000000
vn -0.000000 1.000000 0.000000
vn -0.788011 0.000000 -0.615661
vn 0.788011 0.000000 0.615661
vn -0.615661 0.000000 0.788011
vn 0.615661 0.000000 -0.788011
vn 0.000000 -1.000000 0.000000
vn -0.000000 1.000000 0.000000
vn -0.987688 0.000000 -0.156434
vn 0.987688 0.000000 0.156434
vn -0.156434 0.000000 0.987688
vn 0.156434 0.000000 -0.987688
s off
g Architecture
usemtl MR_Concrete
f 1//1 2//1 3//1 4//1
f 5//2 8//2 7//2 6//2
f 1//3 5//3 6//3 2//3
f 4//4 3//4 7//4 8//4
f 1//5 4//5 8//5 5//5
f 2//6 6//6 7//6 3//6
usemtl MR_ConcreteDark
f 9//7 10//7 11//7 12//7
f 13//8 16//8 15//8 14//8
f 9//9 13//9 14//9 10//9
f 12//10 11//10 15//10 16//10
f 9//11 12//11 16//11 13//11
f 10//12 14//12 15//12 11//12
f 17//13 18//13 19//13 20//13
f 21//14 24//14 23//14 22//14
f 17//15 21//15 22//15 18//15
f 20//16 19//16 23//16 24//16
f 17//17 20//17 24//17 21//17
f 18//18 22//18 23//18 19//18
g Facade
usemtl MR_SecondaryMetal
f 25//19 26//19 27//19 28//19
f 29//20 32//20 31//20 30//20
f 25//21 29//21 30//21 26//21
f 28//22 27//22 31//22 32//22
f 25//23 28//23 32//23 29//23
f 26//24 30//24 31//24 27//24
f 33//25 34//25 35//25 36//25
f 37//26 40//26 39//26 38//26
f 33//27 37//27 38//27 34//27
f 36//28 35//28 39//28 40//28
f 33//29 36//29 40//29 37//29
f 34//30 38//30 39//30 35//30
f 41//31 42//31 43//31 44//31
f 45//32 48//32 47//32 46//32
f 41//33 45//33 46//33 42//33
f 44//34 43//34 47//34 48//34
f 41//35 44//35 48//35 45//35
f 42//36 46//36 47//36 43//36
f 49//37 50//37 51//37 52//37
f 53//38 56//38 55//38 54//38
f 49//39 53//39 54//39 50//39
f 52//40 51//40 55//40 56//40
f 49//41 52//41 56//41 53//41
f 50//42 54//42 55//42 51//42
f 57//43 58//43 59//43 60//43
f 61//44 64//44 63//44 62//44
f 57//45 61//45 62//45 58//45
f 60//46 59//46 63//46 64//46
f 57//47 60//47 64//47 61//47
f 58//48 62//48 63//48 59//48
f 65//49 66//49 67//49 68//49
f 69//50 72//50 71//50 70//50
f 65//51 69//51 70//51 66//51
f 68//52 67//52 71//52 72//52
f 65//53 68//53 72//53 69//53
f 66//54 70//54 71//54 67//54
g Windows
usemtl MR_DimCyan
f 73//55 74//55 75//55 76//55
f 77//56 80//56 79//56 78//56
f 73//57 77//57 78//57 74//57
f 76//58 75//58 79//58 80//58
f 73//59 76//59 80//59 77//59
f 74//60 78//60 79//60 75//60
usemtl MR_WindowDark
f 81//61 82//61 83//61 84//61
f 85//62 88//62 87//62 86//62
f 81//63 85//63 86//63 82//63
f 84//64 83//64 87//64 88//64
f 81//65 84//65 88//65 85//65
f 82//66 86//66 87//66 83//66
f 89//67 90//67 91//67 92//67
f 93//68 96//68 95//68 94//68
f 89//69 93//69 94//69 90//69
f 92//70 91//70 95//70 96//70
f 89//71 92//71 96//71 93//71
f 90//72 94//72 95//72 91//72
f 97//73 98//73 99//73 100//73
f 101//74 104//74 103//74 102//74
f 97//75 101//75 102//75 98//75
f 100//76 99//76 103//76 104//76
f 97//77 100//77 104//77 101//77
f 98//78 102//78 103//78 99//78
f 105//79 106//79 107//79 108//79
f 109//80 112//80 111//80 110//80
f 105//81 109//81 110//81 106//81
f 108//82 107//82 111//82 112//82
f 105//83 108//83 112//83 109//83
f 106//84 110//84 111//84 107//84
f 113//85 114//85 115//85 116//85
f 117//86 120//86 119//86 118//86
f 113//87 117//87 118//87 114//87
f 116//88 115//88 119//88 120//88
f 113//89 116//89 120//89 117//89
f 114//90 118//90 119//90 115//90
usemtl MR_DimCyan
f 121//91 122//91 123//91 124//91
f 125//92 128//92 127//92 126//92
f 121//93 125//93 126//93 122//93
f 124//94 123//94 127//94 128//94
f 121//95 124//95 128//95 125//95
f 122//96 126//96 127//96 123//96
usemtl MR_WindowDark
f 129//97 130//97 131//97 132//97
f 133//98 136//98 135//98 134//98
f 129//99 133//99 134//99 130//99
f 132//100 131//100 135//100 136//100
f 129//101 132//101 136//101 133//101
f 130//102 134//102 135//102 131//102
f 137//103 138//103 139//103 140//103
f 141//104 144//104 143//104 142//104
f 137//105 141//105 142//105 138//105
f 140//106 139//106 143//106 144//106
f 137//107 140//107 144//107 141//107
f 138//108 142//108 143//108 139//108
f 145//109 146//109 147//109 148//109
f 149//110 152//110 151//110 150//110
f 145//111 149//111 150//111 146//111
f 148//112 147//112 151//112 152//112
f 145//113 148//113 152//113 149//113
f 146//114 150//114 151//114 147//114
g Entrance
f 153//115 154//115 155//115 156//115
f 157//116 160//116 159//116 158//116
f 153//117 157//117 158//117 154//117
f 156//118 155//118 159//118 160//118
f 153//119 156//119 160//119 157//119
f 154//120 158//120 159//120 155//120
g CyanLights
usemtl MR_CyanEmission
f 161//121 162//121 163//121 164//121
f 165//122 168//122 167//122 166//122
f 161//123 165//123 166//123 162//123
f 164//124 163//124 167//124 168//124
f 161//125 164//125 168//125 165//125
f 162//126 166//126 167//126 163//126
g Pipes
usemtl MR_Rust
f 169//127 170//127 178//127 177//127
f 170//128 171//128 179//128 178//128
f 171//129 172//129 180//129 179//129
f 172//130 173//130 181//130 180//130
f 173//131 174//131 182//131 181//131
f 174//132 175//132 183//132 182//132
f 175//133 176//133 184//133 183//133
f 176//134 169//134 177//134 184//134
f 176//135 175//135 174//135 173//135 172//135 171//135 170//135 169//135
f 177//136 178//136 179//136 180//136 181//136 182//136 183//136 184//136
g Props
usemtl MR_SecondaryMetal
f 185//137 186//137 187//137 188//137
f 189//138 192//138 191//138 190//138
f 185//139 189//139 190//139 186//139
f 188//140 187//140 191//140 192//140
f 185//141 188//141 192//141 189//141
f 186//142 190//142 191//142 187//142
g Damage
usemtl MR_Rust
f 193//143 194//143 195//143 196//143
f 197//144 200//144 199//144 198//144
f 193//145 197//145 198//145 194//145
f 196//146 195//146 199//146 200//146
f 193//147 196//147 200//147 197//147
f 194//148 198//148 199//148 195//148
g Debris
f 201//149 202//149 203//149 204//149
f 205//150 208//150 207//150 206//150
f 201//151 205//151 206//151 202//151
f 204//152 203//152 207//152 208//152
f 201//153 204//153 208//153 205//153
f 202//154 206//154 207//154 203//154
usemtl MR_Debris
f 209//155 210//155 211//155 212//155
f 213//156 216//156 215//156 214//156
f 209//157 213//157 214//157 210//157
f 212//158 211//158 215//158 216//158
f 209//159 212//159 216//159 213//159
f 210//160 214//160 215//160 211//160
f 217//161 218//161 219//161 220//161
f 221//162 224//162 223//162 222//162
f 217//163 221//163 222//163 218//163
f 220//164 219//164 223//164 224//164
f 217//165 220//165 224//165 221//165
f 218//166 222//166 223//166 219//166
f 225//167 226//167 227//167 228//167
f 229//168 232//168 231//168 230//168
f 225//169 229//169 230//169 226//169
f 228//170 227//170 231//170 232//170
f 225//171 228//171 232//171 229//171
f 226//172 230//172 231//172 227//172
usemtl MR_Rust
f 233//173 234//173 235//173 236//173
f 237//174 240//174 239//174 238//174
f 233//175 237//175 238//175 234//175
f 236//176 235//176 239//176 240//176
f 233//177 236//177 240//177 237//177
f 234//178 238//178 239//178 235//178
usemtl MR_Debris
f 241//179 242//179 243//179 244//179
f 245//180 248//180 247//180 246//180
f 241//181 245//181 246//181 242//181
f 244//182 243//182 247//182 248//182
f 241//183 244//183 248//183 245//183
f 242//184 246//184 247//184 243//184
f 249//185 250//185 251//185 252//185
f 253//186 256//186 255//186 254//186
f 249//187 253//187 254//187 250//187
f 252//188 251//188 255//188 256//188
f 249//189 252//189 256//189 253//189
f 250//190 254//190 255//190 251//190
f 257//191 258//191 259//191 260//191
f 261//192 264//192 263//192 262//192
f 257//193 261//193 262//193 258//193
f 260//194 259//194 263//194 264//194
f 257//195 260//195 264//195 261//195
f 258//196 262//196 263//196 259//196
usemtl MR_Rust
f 265//197 266//197 267//197 268//197
f 269//198 272//198 271//198 270//198
f 265//199 269//199 270//199 266//199
f 268//200 267//200 271//200 272//200
f 265//201 268//201 272//201 269//201
f 266//202 270//202 271//202 267//202
usemtl MR_Debris
f 273//203 274//203 275//203 276//203
f 277//204 280//204 279//204 278//204
f 273//205 277//205 278//205 274//205
f 276//206 275//206 279//206 280//206
f 273//207 276//207 280//207 277//207
f 274//208 278//208 279//208 275//208
