# Memory Recycler 3D - generated game-ready model
# 1 unit = 1 metre | triangles = 764
mtllib MR3D_ArchiveCityKit.mtl
o RuinedTower_C
v -6.000000 0.000000 -5.000000
v 6.000000 0.000000 -5.000000
v 6.000000 0.000000 5.000000
v -6.000000 0.000000 5.000000
v -6.000000 16.000000 -5.000000
v 6.000000 16.000000 -5.000000
v 6.000000 16.000000 5.000000
v -6.000000 16.000000 5.000000
v -4.750000 13.000000 -3.750000
v 4.750000 13.000000 -3.750000
v 4.750000 13.000000 4.750000
v -4.750000 13.000000 4.750000
v -4.750000 25.000000 -3.750000
v 4.750000 25.000000 -3.750000
v 4.750000 25.000000 4.750000
v -4.750000 25.000000 4.750000
v -3.500000 24.000000 -2.700000
v 3.500000 24.000000 -2.700000
v 3.500000 24.000000 4.300000
v -3.500000 24.000000 4.300000
v -3.500000 32.000000 -2.700000
v 3.500000 32.000000 -2.700000
v 3.500000 32.000000 4.300000
v -3.500000 32.000000 4.300000
v -3.300000 31.900000 -2.100000
v 2.300000 31.900000 -2.100000
v 2.300000 31.900000 3.700000
v -3.300000 31.900000 3.700000
v -3.300000 33.100000 -2.100000
v 2.300000 33.100000 -2.100000
v 2.300000 33.100000 3.700000
v -3.300000 33.100000 3.700000
v -5.630000 0.250000 -5.520000
v -5.170000 0.250000 -5.520000
v -5.170000 0.250000 -5.040000
v -5.630000 0.250000 -5.040000
v -5.630000 15.750000 -5.520000
v -5.170000 15.750000 -5.520000
v -5.170000 15.750000 -5.040000
v -5.630000 15.750000 -5.040000
v -3.730000 0.250000 -5.520000
v -3.270000 0.250000 -5.520000
v -3.270000 0.250000 -5.040000
v -3.730000 0.250000 -5.040000
v -3.730000 15.750000 -5.520000
v -3.270000 15.750000 -5.520000
v -3.270000 15.750000 -5.040000
v -3.730000 15.750000 -5.040000
v -1.630000 0.250000 -5.520000
v -1.170000 0.250000 -5.520000
v -1.170000 0.250000 -5.040000
v -1.630000 0.250000 -5.040000
v -1.630000 15.750000 -5.520000
v -1.170000 15.750000 -5.520000
v -1.170000 15.750000 -5.040000
v -1.630000 15.750000 -5.040000
v 1.170000 0.250000 -5.520000
v 1.630000 0.250000 -5.520000
v 1.630000 0.250000 -5.040000
v 1.170000 0.250000 -5.040000
v 1.170000 15.750000 -5.520000
v 1.630000 15.750000 -5.520000
v 1.630000 15.750000 -5.040000
v 1.170000 15.750000 -5.040000
v 3.270000 0.250000 -5.520000
v 3.730000 0.250000 -5.520000
v 3.730000 0.250000 -5.040000
v 3.270000 0.250000 -5.040000
v 3.270000 15.750000 -5.520000
v 3.730000 15.750000 -5.520000
v 3.730000 15.750000 -5.040000
v 3.270000 15.750000 -5.040000
v 5.170000 0.250000 -5.520000
v 5.630000 0.250000 -5.520000
v 5.630000 0.250000 -5.040000
v 5.170000 0.250000 -5.040000
v 5.170000 15.750000 -5.520000
v 5.630000 15.750000 -5.520000
v 5.630000 15.750000 -5.040000
v 5.170000 15.750000 -5.040000
v -4.775000 2.225000 -5.300000
v -4.225000 2.225000 -5.300000
v -4.225000 2.225000 -5.200000
v -4.775000 2.225000 -5.200000
v -4.775000 3.775000 -5.300000
v -4.225000 3.775000 -5.300000
v -4.225000 3.775000 -5.200000
v -4.775000 3.775000 -5.200000
v -2.675000 2.225000 -5.300000
v -2.125000 2.225000 -5.300000
v -2.125000 2.225000 -5.200000
v -2.675000 2.225000 -5.200000
v -2.675000 3.775000 -5.300000
v -2.125000 3.775000 -5.300000
v -2.125000 3.775000 -5.200000
v -2.675000 3.775000 -5.200000
v -0.275000 2.225000 -5.300000
v 0.275000 2.225000 -5.300000
v 0.275000 2.225000 -5.200000
v -0.275000 2.225000 -5.200000
v -0.275000 3.775000 -5.300000
v 0.275000 3.775000 -5.300000
v 0.275000 3.775000 -5.200000
v -0.275000 3.775000 -5.200000
v 2.125000 2.225000 -5.300000
v 2.675000 2.225000 -5.300000
v 2.675000 2.225000 -5.200000
v 2.125000 2.225000 -5.200000
v 2.125000 3.775000 -5.300000
v 2.675000 3.775000 -5.300000
v 2.675000 3.775000 -5.200000
v 2.125000 3.775000 -5.200000
v 4.225000 2.225000 -5.300000
v 4.775000 2.225000 -5.300000
v 4.775000 2.225000 -5.200000
v 4.225000 2.225000 -5.200000
v 4.225000 3.775000 -5.300000
v 4.775000 3.775000 -5.300000
v 4.775000 3.775000 -5.200000
v 4.225000 3.775000 -5.200000
v -4.775000 5.425000 -5.300000
v -4.225000 5.425000 -5.300000
v -4.225000 5.425000 -5.200000
v -4.775000 5.425000 -5.200000
v -4.775000 6.975000 -5.300000
v -4.225000 6.975000 -5.300000
v -4.225000 6.975000 -5.200000
v -4.775000 6.975000 -5.200000
v -2.675000 5.425000 -5.300000
v -2.125000 5.425000 -5.300000
v -2.125000 5.425000 -5.200000
v -2.675000 5.425000 -5.200000
v -2.675000 6.975000 -5.300000
v -2.125000 6.975000 -5.300000
v -2.125000 6.975000 -5.200000
v -2.675000 6.975000 -5.200000
v -0.275000 5.425000 -5.300000
v 0.275000 5.425000 -5.300000
v 0.275000 5.425000 -5.200000
v -0.275000 5.425000 -5.200000
v -0.275000 6.975000 -5.300000
v 0.275000 6.975000 -5.300000
v 0.275000 6.975000 -5.200000
v -0.275000 6.975000 -5.200000
v 2.125000 5.425000 -5.300000
v 2.675000 5.425000 -5.300000
v 2.675000 5.425000 -5.200000
v 2.125000 5.425000 -5.200000
v 2.125000 6.975000 -5.300000
v 2.675000 6.975000 -5.300000
v 2.675000 6.975000 -5.200000
v 2.125000 6.975000 -5.200000
v 4.225000 5.425000 -5.300000
v 4.775000 5.425000 -5.300000
v 4.775000 5.425000 -5.200000
v 4.225000 5.425000 -5.200000
v 4.225000 6.975000 -5.300000
v 4.775000 6.975000 -5.300000
v 4.775000 6.975000 -5.200000
v 4.225000 6.975000 -5.200000
v -4.775000 8.625000 -5.300000
v -4.225000 8.625000 -5.300000
v -4.225000 8.625000 -5.200000
v -4.775000 8.625000 -5.200000
v -4.775000 10.175000 -5.300000
v -4.225000 10.175000 -5.300000
v -4.225000 10.175000 -5.200000
v -4.775000 10.175000 -5.200000
v -2.675000 8.625000 -5.300000
v -2.125000 8.625000 -5.300000
v -2.125000 8.625000 -5.200000
v -2.675000 8.625000 -5.200000
v -2.675000 10.175000 -5.300000
v -2.125000 10.175000 -5.300000
v -2.125000 10.175000 -5.200000
v -2.675000 10.175000 -5.200000
v -0.275000 8.625000 -5.300000
v 0.275000 8.625000 -5.300000
v 0.275000 8.625000 -5.200000
v -0.275000 8.625000 -5.200000
v -0.275000 10.175000 -5.300000
v 0.275000 10.175000 -5.300000
v 0.275000 10.175000 -5.200000
v -0.275000 10.175000 -5.200000
v 2.125000 8.625000 -5.300000
v 2.675000 8.625000 -5.300000
v 2.675000 8.625000 -5.200000
v 2.125000 8.625000 -5.200000
v 2.125000 10.175000 -5.300000
v 2.675000 10.175000 -5.300000
v 2.675000 10.175000 -5.200000
v 2.125000 10.175000 -5.200000
v 4.225000 8.625000 -5.300000
v 4.775000 8.625000 -5.300000
v 4.775000 8.625000 -5.200000
v 4.225000 8.625000 -5.200000
v 4.225000 10.175000 -5.300000
v 4.775000 10.175000 -5.300000
v 4.775000 10.175000 -5.200000
v 4.225000 10.175000 -5.200000
v -4.775000 11.825000 -5.300000
v -4.225000 11.825000 -5.300000
v -4.225000 11.825000 -5.200000
v -4.775000 11.825000 -5.200000
v -4.775000 13.375000 -5.300000
v -4.225000 13.375000 -5.300000
v -4.225000 13.375000 -5.200000
v -4.775000 13.375000 -5.200000
v -2.675000 11.825000 -5.300000
v -2.125000 11.825000 -5.300000
v -2.125000 11.825000 -5.200000
v -2.675000 11.825000 -5.200000
v -2.675000 13.375000 -5.300000
v -2.125000 13.375000 -5.300000
v -2.125000 13.375000 -5.200000
v -2.675000 13.375000 -5.200000
v -0.275000 11.825000 -5.300000
v 0.275000 11.825000 -5.300000
v 0.275000 11.825000 -5.200000
v -0.275000 11.825000 -5.200000
v -0.275000 13.375000 -5.300000
v 0.275000 13.375000 -5.300000
v 0.275000 13.375000 -5.200000
v -0.275000 13.375000 -5.200000
v 2.125000 11.825000 -5.300000
v 2.675000 11.825000 -5.300000
v 2.675000 11.825000 -5.200000
v 2.125000 11.825000 -5.200000
v 2.125000 13.375000 -5.300000
v 2.675000 13.375000 -5.300000
v 2.675000 13.375000 -5.200000
v 2.125000 13.375000 -5.200000
v 4.225000 11.825000 -5.300000
v 4.775000 11.825000 -5.300000
v 4.775000 11.825000 -5.200000
v 4.225000 11.825000 -5.200000
v 4.225000 13.375000 -5.300000
v 4.775000 13.375000 -5.300000
v 4.775000 13.375000 -5.200000
v 4.225000 13.375000 -5.200000
v -3.840000 16.275000 -3.870000
v -3.360000 16.275000 -3.870000
v -3.360000 16.275000 -3.770000
v -3.840000 16.275000 -3.770000
v -3.840000 17.725000 -3.870000
v -3.360000 17.725000 -3.870000
v -3.360000 17.725000 -3.770000
v -3.840000 17.725000 -3.770000
v -2.040000 16.275000 -3.870000
v -1.560000 16.275000 -3.870000
v -1.560000 16.275000 -3.770000
v -2.040000 16.275000 -3.770000
v -2.040000 17.725000 -3.870000
v -1.560000 17.725000 -3.870000
v -1.560000 17.725000 -3.770000
v -2.040000 17.725000 -3.770000
v -0.240000 16.275000 -3.870000
v 0.240000 16.275000 -3.870000
v 0.240000 16.275000 -3.770000
v -0.240000 16.275000 -3.770000
v -0.240000 17.725000 -3.870000
v 0.240000 17.725000 -3.870000
v 0.240000 17.725000 -3.770000
v -0.240000 17.725000 -3.770000
v 1.560000 16.275000 -3.870000
v 2.040000 16.275000 -3.870000
v 2.040000 16.275000 -3.770000
v 1.560000 16.275000 -3.770000
v 1.560000 17.725000 -3.870000
v 2.040000 17.725000 -3.870000
v 2.040000 17.725000 -3.770000
v 1.560000 17.725000 -3.770000
v 3.360000 16.275000 -3.870000
v 3.840000 16.275000 -3.870000
v 3.840000 16.275000 -3.770000
v 3.360000 16.275000 -3.770000
v 3.360000 17.725000 -3.870000
v 3.840000 17.725000 -3.870000
v 3.840000 17.725000 -3.770000
v 3.360000 17.725000 -3.770000
v -3.840000 19.275000 -3.870000
v -3.360000 19.275000 -3.870000
v -3.360000 19.275000 -3.770000
v -3.840000 19.275000 -3.770000
v -3.840000 20.725000 -3.870000
v -3.360000 20.725000 -3.870000
v -3.360000 20.725000 -3.770000
v -3.840000 20.725000 -3.770000
v -2.040000 19.275000 -3.870000
v -1.560000 19.275000 -3.870000
v -1.560000 19.275000 -3.770000
v -2.040000 19.275000 -3.770000
v -2.040000 20.725000 -3.870000
v -1.560000 20.725000 -3.870000
v -1.560000 20.725000 -3.770000
v -2.040000 20.725000 -3.770000
v -0.240000 19.275000 -3.870000
v 0.240000 19.275000 -3.870000
v 0.240000 19.275000 -3.770000
v -0.240000 19.275000 -3.770000
v -0.240000 20.725000 -3.870000
v 0.240000 20.725000 -3.870000
v 0.240000 20.725000 -3.770000
v -0.240000 20.725000 -3.770000
v 1.560000 19.275000 -3.870000
v 2.040000 19.275000 -3.870000
v 2.040000 19.275000 -3.770000
v 1.560000 19.275000 -3.770000
v 1.560000 20.725000 -3.870000
v 2.040000 20.725000 -3.870000
v 2.040000 20.725000 -3.770000
v 1.560000 20.725000 -3.770000
v 3.360000 19.275000 -3.870000
v 3.840000 19.275000 -3.870000
v 3.840000 19.275000 -3.770000
v 3.360000 19.275000 -3.770000
v 3.360000 20.725000 -3.870000
v 3.840000 20.725000 -3.870000
v 3.840000 20.725000 -3.770000
v 3.360000 20.725000 -3.770000
v -3.840000 22.275000 -3.870000
v -3.360000 22.275000 -3.870000
v -3.360000 22.275000 -3.770000
v -3.840000 22.275000 -3.770000
v -3.840000 23.725000 -3.870000
v -3.360000 23.725000 -3.870000
v -3.360000 23.725000 -3.770000
v -3.840000 23.725000 -3.770000
v -2.040000 22.275000 -3.870000
v -1.560000 22.275000 -3.870000
v -1.560000 22.275000 -3.770000
v -2.040000 22.275000 -3.770000
v -2.040000 23.725000 -3.870000
v -1.560000 23.725000 -3.870000
v -1.560000 23.725000 -3.770000
v -2.040000 23.725000 -3.770000
v -0.240000 22.275000 -3.870000
v 0.240000 22.275000 -3.870000
v 0.240000 22.275000 -3.770000
v -0.240000 22.275000 -3.770000
v -0.240000 23.725000 -3.870000
v 0.240000 23.725000 -3.870000
v 0.240000 23.725000 -3.770000
v -0.240000 23.725000 -3.770000
v 1.560000 22.275000 -3.870000
v 2.040000 22.275000 -3.870000
v 2.040000 22.275000 -3.770000
v 1.560000 22.275000 -3.770000
v 1.560000 23.725000 -3.870000
v 2.040000 23.725000 -3.870000
v 2.040000 23.725000 -3.770000
v 1.560000 23.725000 -3.770000
v 3.360000 22.275000 -3.870000
v 3.840000 22.275000 -3.870000
v 3.840000 22.275000 -3.770000
v 3.360000 22.275000 -3.770000
v 3.360000 23.725000 -3.870000
v 3.840000 23.725000 -3.870000
v 3.840000 23.725000 -3.770000
v 3.360000 23.725000 -3.770000
v -0.170000 12.500000 -4.200000
v 0.170000 12.500000 -4.200000
v 0.170000 12.500000 -4.000000
v -0.170000 12.500000 -4.000000
v -0.170000 31.500000 -4.200000
v 0.170000 31.500000 -4.200000
v 0.170000 31.500000 -4.000000
v -0.170000 31.500000 -4.000000
v -1.700000 0.000000 -5.425000
v 1.700000 0.000000 -5.425000
v 1.700000 0.000000 -5.175000
v -1.700000 0.000000 -5.175000
v -1.700000 4.800000 -5.425000
v 1.700000 4.800000 -5.425000
v 1.700000 4.800000 -5.175000
v -1.700000 4.800000 -5.175000
v 0.800000 33.100000 0.330000
v 0.750567 33.102535 0.350503
v 0.730092 33.103585 0.400000
v 0.750567 33.102535 0.449497
v 0.800000 33.100000 0.470000
v 0.849433 33.097465 0.449497
v 0.869908 33.096415 0.400000
v 0.849433 33.097465 0.350503
v 1.000000 37.000000 0.330000
v 0.950567 37.002535 0.350503
v 0.930092 37.003585 0.400000
v 0.950567 37.002535 0.449497
v 1.000000 37.000000 0.470000
v 1.049433 36.997465 0.449497
v 1.069908 36.996415 0.400000
v 1.049433 36.997465 0.350503
v -2.700000 33.006965 -1.269653
v -2.748546 32.995312 -1.250213
v -2.768654 32.986405 -1.201359
v -2.748546 32.985462 -1.151709
v -2.700000 32.993035 -1.130347
v -2.651454 33.004688 -1.149787
v -2.631346 33.013595 -1.198641
v -2.651454 33.014538 -1.248291
v -3.100000 35.006965 -1.069653
v -3.148546 34.995312 -1.050213
v -3.168654 34.986405 -1.001359
v -3.148546 34.985462 -0.951709
v -3.100000 34.993035 -0.930347
v -3.051454 35.004688 -0.949787
v -3.031346 35.013595 -0.998641
v -3.051454 35.014538 -1.048291
v 3.748000 0.000000 -6.208000
v 3.892000 0.000000 -6.208000
v 3.892000 0.000000 -5.952000
v 3.748000 0.000000 -5.952000
v 3.748000 0.080000 -6.208000
v 3.892000 0.080000 -6.208000
v 3.892000 0.080000 -5.952000
v 3.748000 0.080000 -5.952000
v 4.188473 0.000000 -5.565640
v 4.384388 0.000000 -5.674238
v 4.539527 0.000000 -5.394360
v 4.343612 0.000000 -5.285762
v 4.188473 0.144000 -5.565640
v 4.384388 0.144000 -5.674238
v 4.539527 0.144000 -5.394360
v 4.343612 0.144000 -5.285762
v 4.664627 0.000000 -5.932841
v 4.825722 0.000000 -6.190648
v 5.151373 0.000000 -5.987159
v 4.990278 0.000000 -5.729352
v 4.664627 0.208000 -5.932841
v 4.825722 0.208000 -6.190648
v 5.151373 0.208000 -5.987159
v 4.990278 0.208000 -5.729352
v 3.882039 0.000000 -5.171613
v 3.902136 0.000000 -5.555086
v 4.029961 0.000000 -5.548387
v 4.009864 0.000000 -5.164914
v 3.882039 0.080000 -5.171613
v 3.902136 0.080000 -5.555086
v 4.029961 0.080000 -5.548387
v 4.009864 0.080000 -5.164914
v 4.393203 0.000000 -5.894722
v 4.522630 0.000000 -5.957847
v 4.606797 0.000000 -5.785278
v 4.477370 0.000000 -5.722153
v 4.393203 0.144000 -5.894722
v 4.522630 0.144000 -5.957847
v 4.606797 0.144000 -5.785278
v 4.477370 0.144000 -5.722153
v 4.874908 0.000000 -5.221673
v 5.003389 0.000000 -5.405163
v 5.213092 0.000000 -5.258327
v 5.084611 0.000000 -5.074837
v 4.874908 0.208000 -5.221673
v 5.003389 0.208000 -5.405163
v 5.213092 0.208000 -5.258327
v 5.084611 0.208000 -5.074837
v 3.916988 0.000000 -5.585557
v 3.948765 0.000000 -5.887892
v 4.267012 0.000000 -5.854443
v 4.235235 0.000000 -5.552108
v 3.916988 0.080000 -5.585557
v 3.948765 0.080000 -5.887892
v 4.267012 0.080000 -5.854443
v 4.235235 0.080000 -5.552108
v 4.384243 0.000000 -5.221717
v 4.737717 0.000000 -5.371757
v 4.887757 0.000000 -5.018283
v 4.534283 0.000000 -4.868243
v 4.384243 0.144000 -5.221717
v 4.737717 0.144000 -5.371757
v 4.887757 0.144000 -5.018283
v 4.534283 0.144000 -4.868243
v 5.085240 0.000000 -5.582666
v 5.173895 0.000000 -5.696139
v 5.274760 0.000000 -5.617334
v 5.186105 0.000000 -5.503861
v 5.085240 0.208000 -5.582666
v 5.173895 0.208000 -5.696139
v 5.274760 0.208000 -5.617334
v 5.186105 0.208000 -5.503861
v 4.115661 0.000000 -5.984397
v 4.150703 0.000000 -6.205639
v 4.340339 0.000000 -6.175603
v 4.305297 0.000000 -5.954361
v 4.115661 0.080000 -5.984397
v 4.150703 0.080000 -6.205639
v 4.340339 0.080000 -6.175603
v 4.305297 0.080000 -5.954361
v 4.585388 0.000000 -5.548294
v 4.871055 0.000000 -5.652268
v 4.958612 0.000000 -5.411706
v 4.672945 0.000000 -5.307732
v 4.585388 0.144000 -5.548294
v 4.871055 0.144000 -5.652268
v 4.958612 0.144000 -5.411706
v 4.672945 0.144000 -5.307732
v 3.573283 0.000000 -5.920065
v 3.825210 0.000000 -6.209874
v 4.066717 0.000000 -5.999935
v 3.814790 0.000000 -5.710126
v 3.573283 0.208000 -5.920065
v 3.825210 0.208000 -6.209874
v 4.066717 0.208000 -5.999935
v 3.814790 0.208000 -5.710126
vn 0.000000 -1.000000 0.000000
vn 0.000000 1.000000 0.000000
vn 0.000000 0.000000 -1.000000
vn 0.000000 0.000000 1.000000
vn -1.000000 0.000000 0.000000
vn 1.000000 0.000000 0.000000
vn 0.000000 -1.000000 0.000000
vn 0.000000 1.000000 0.000000
vn 0.000000 0.000000 -1.000000
vn 0.000000 0.000000 1.000000
vn -1.000000 0.000000 0.000000
vn 1.000000 0.000000 0.000000
vn 0.000000 -1.000000 0.000000
vn 0.000000 1.000000 0.000000
vn 0.000000 0.000000 -1.000000
vn 0.000000 0.000000 1.000000
vn -1.000000 0.000000 0.000000
vn 1.000000 0.000000 0.000000
vn 0.000000 -1.000000 0.000000
vn 0.000000 1.000000 0.000000
vn 0.000000 0.000000 -1.000000
vn 0.000000 0.000000 1.000000
vn -1.000000 0.000000 0.000000
vn 1.000000 0.000000 0.000000
vn 0.000000 -1.000000 0.000000
vn 0.000000 1.000000 0.000000
vn 0.000000 0.000000 -1.000000
vn 0.000000 0.000000 1.000000
vn -1.000000 0.000000 0.000000
vn 1.000000 0.000000 0.000000
vn 0.000000 -1.000000 0.000000
vn 0.000000 1.000000 0.000000
vn 0.000000 0.000000 -1.000000
vn 0.000000 0.000000 1.000000
vn -1.000000 0.000000 0.000000
vn 1.000000 0.000000 0.000000
vn 0.000000 -1.000000 0.000000
vn 0.000000 1.000000 0.000000
vn 0.000000 0.000000 -1.000000
vn 0.000000 0.000000 1.000000
vn -1.000000 0.000000 0.000000
vn 1.000000 0.000000 0.000000
vn 0.000000 -1.000000 0.000000
vn 0.000000 1.000000 0.000000
vn 0.000000 0.000000 -1.000000
vn 0.000000 0.000000 1.000000
vn -1.000000 0.000000 0.000000
vn 1.000000 0.000000 0.000000
vn 0.000000 -1.000000 0.000000
vn 0.000000 1.000000 0.000000
vn 0.000000 0.000000 -1.000000
vn 0.000000 0.000000 1.000000
vn -1.000000 0.000000 0.000000
vn 1.000000 0.000000 0.000000
vn 0.000000 -1.000000 0.000000
vn 0.000000 1.000000 0.000000
vn 0.000000 0.000000 -1.000000
vn 0.000000 0.000000 1.000000
vn -1.000000 0.000000 0.000000
vn 1.000000 0.000000 0.000000
vn 0.000000 -1.000000 0.000000
vn 0.000000 1.000000 0.000000
vn 0.000000 0.000000 -1.000000
vn 0.000000 0.000000 1.000000
vn -1.000000 0.000000 0.000000
vn 1.000000 0.000000 0.000000
vn 0.000000 -1.000000 0.000000
vn 0.000000 1.000000 0.000000
vn 0.000000 0.000000 -1.000000
vn 0.000000 0.000000 1.000000
vn -1.000000 0.000000 0.000000
vn 1.000000 0.000000 0.000000
vn 0.000000 -1.000000 0.000000
vn 0.000000 1.000000 0.000000
vn 0.000000 0.000000 -1.000000
vn 0.000000 0.000000 1.000000
vn -1.000000 0.000000 0.000000
vn 1.000000 0.000000 0.000000
vn 0.000000 -1.000000 0.000000
vn 0.000000 1.000000 0.000000
vn 0.000000 0.000000 -1.000000
vn 0.000000 0.000000 1.000000
vn -1.000000 0.000000 0.000000
vn 1.000000 0.000000 0.000000
vn 0.000000 -1.000000 0.000000
vn 0.000000 1.000000 0.000000
vn 0.000000 0.000000 -1.000000
vn 0.000000 0.000000 1.000000
vn -1.000000 0.000000 0.000000
vn 1.000000 0.000000 0.000000
vn 0.000000 -1.000000 0.000000
vn 0.000000 1.000000 0.000000
vn 0.000000 0.000000 -1.000000
vn 0.000000 0.000000 1.000000
vn -1.000000 0.000000 0.000000
vn 1.000000 0.000000 0.000000
vn 0.000000 -1.000000 0.000000
vn 0.000000 1.000000 0.000000
vn 0.000000 0.000000 -1.000000
vn 0.000000 0.000000 1.000000
vn -1.000000 0.000000 0.000000
vn 1.000000 0.000000 0.000000
vn 0.000000 -1.000000 0.000000
vn 0.000000 1.000000 0.000000
vn 0.000000 0.000000 -1.000000
vn 0.000000 0.000000 1.000000
vn -1.000000 0.000000 0.000000
vn 1.000000 0.000000 0.000000
vn 0.000000 -1.000000 0.000000
vn 0.000000 1.000000 0.000000
vn 0.000000 0.000000 -1.000000
vn 0.000000 0.000000 1.000000
vn -1.000000 0.000000 0.000000
vn 1.000000 0.000000 0.000000
vn 0.000000 -1.000000 0.000000
vn 0.000000 1.000000 0.000000
vn 0.000000 0.000000 -1.000000
vn 0.000000 0.000000 1.000000
vn -1.000000 0.000000 0.000000
vn 1.000000 0.000000 0.000000
vn 0.000000 -1.000000 0.000000
vn 0.000000 1.000000 0.000000
vn 0.000000 0.000000 -1.000000
vn 0.000000 0.000000 1.000000
vn -1.000000 0.000000 0.000000
vn 1.000000 0.000000 0.000000
vn 0.000000 -1.000000 0.000000
vn 0.000000 1.000000 0.000000
vn 0.000000 0.000000 -1.000000
vn 0.000000 0.000000 1.000000
vn -1.000000 0.000000 0.000000
vn 1.000000 0.000000 0.000000
vn 0.000000 -1.000000 0.000000
vn 0.000000 1.000000 0.000000
vn 0.000000 0.000000 -1.000000
vn 0.000000 0.000000 1.000000
vn -1.000000 0.000000 0.000000
vn 1.000000 0.000000 0.000000
vn 0.000000 -1.000000 0.000000
vn 0.000000 1.000000 0.000000
vn 0.000000 0.000000 -1.000000
vn 0.000000 0.000000 1.000000
vn -1.000000 0.000000 0.000000
vn 1.000000 0.000000 0.000000
vn 0.000000 -1.000000 0.000000
vn 0.000000 1.000000 0.000000
vn 0.000000 0.000000 -1.000000
vn 0.000000 0.000000 1.000000
vn -1.000000 0.000000 0.000000
vn 1.000000 0.000000 0.000000
vn 0.000000 -1.000000 0.000000
vn 0.000000 1.000000 0.000000
vn 0.000000 0.000000 -1.000000
vn 0.000000 0.000000 1.000000
vn -1.000000 0.000000 0.000000
vn 1.000000 0.000000 0.000000
vn 0.000000 -1.000000 0.000000
vn 0.000000 1.000000 0.000000
vn 0.000000 0.000000 -1.000000
vn 0.000000 0.000000 1.000000
vn -1.000000 0.000000 0.000000
vn 1.000000 0.000000 0.000000
vn 0.000000 -1.000000 0.000000
vn 0.000000 1.000000 0.000000
vn 0.000000 0.000000 -1.000000
vn 0.000000 0.000000 1.000000
vn -1.000000 0.000000 0.000000
vn 1.000000 0.000000 0.000000
vn 0.000000 -1.000000 0.000000
vn 0.000000 1.000000 0.000000
vn 0.000000 0.000000 -1.000000
vn 0.000000 0.000000 1.000000
vn -1.000000 0.000000 0.000000
vn 1.000000 0.000000 0.000000
vn 0.000000 -1.000000 0.000000
vn 0.000000 1.000000 0.000000
vn 0.000000 0.000000 -1.000000
vn 0.000000 0.000000 1.000000
vn -1.000000 0.000000 0.000000
vn 1.000000 0.000000 0.000000
vn 0.000000 -1.000000 0.000000
vn 0.000000 1.000000 0.000000
vn 0.000000 0.000000 -1.000000
vn 0.000000 0.000000 1.000000
vn -1.000000 0.000000 0.000000
vn 1.000000 0.000000 0.000000
vn 0.000000 -1.000000 0.000000
vn 0.000000 1.000000 0.000000
vn 0.000000 0.000000 -1.000000
vn 0.000000 0.000000 1.000000
vn -1.000000 0.000000 0.000000
vn 1.000000 0.000000 0.000000
vn 0.000000 -1.000000 0.000000
vn 0.000000 1.000000 0.000000
vn 0.000000 0.000000 -1.000000
vn 0.000000 0.000000 1.000000
vn -1.000000 0.000000 0.000000
vn 1.000000 0.000000 0.000000
vn 0.000000 -1.000000 0.000000
vn 0.000000 1.000000 0.000000
vn 0.000000 0.000000 -1.000000
vn 0.000000 0.000000 1.000000
vn -1.000000 0.000000 0.000000
vn 1.000000 0.000000 0.000000
vn 0.000000 -1.000000 0.000000
vn 0.000000 1.000000 0.000000
vn 0.000000 0.000000 -1.000000
vn 0.000000 0.000000 1.000000
vn -1.000000 0.000000 0.000000
vn 1.000000 0.000000 0.000000
vn 0.000000 -1.000000 0.000000
vn 0.000000 1.000000 0.000000
vn 0.000000 0.000000 -1.000000
vn 0.000000 0.000000 1.000000
vn -1.000000 0.000000 0.000000
vn 1.000000 0.000000 0.000000
vn 0.000000 -1.000000 0.000000
vn 0.000000 1.000000 0.000000
vn 0.000000 0.000000 -1.000000
vn 0.000000 0.000000 1.000000
vn -1.000000 0.000000 0.000000
vn 1.000000 0.000000 0.000000
vn 0.000000 -1.000000 0.000000
vn 0.000000 1.000000 0.000000
vn 0.000000 0.000000 -1.000000
vn 0.000000 0.000000 1.000000
vn -1.000000 0.000000 0.000000
vn 1.000000 0.000000 0.000000
vn 0.000000 -1.000000 0.000000
vn 0.000000 1.000000 0.000000
vn 0.000000 0.000000 -1.000000
vn 0.000000 0.000000 1.000000
vn -1.000000 0.000000 0.000000
vn 1.000000 0.000000 0.000000
vn 0.000000 -1.000000 0.000000
vn 0.000000 1.000000 0.000000
vn 0.000000 0.000000 -1.000000
vn 0.000000 0.000000 1.000000
vn -1.000000 0.000000 0.000000
vn 1.000000 0.000000 0.000000
vn 0.000000 -1.000000 0.000000
vn 0.000000 1.000000 0.000000
vn 0.000000 0.000000 -1.000000
vn 0.000000 0.000000 1.000000
vn -1.000000 0.000000 0.000000
vn 1.000000 0.000000 0.000000
vn 0.000000 -1.000000 0.000000
vn 0.000000 1.000000 0.000000
vn 0.000000 0.000000 -1.000000
vn 0.000000 0.000000 1.000000
vn -1.000000 0.000000 0.000000
vn 1.000000 0.000000 0.000000
vn 0.000000 -1.000000 0.000000
vn 0.000000 1.000000 0.000000
vn 0.000000 0.000000 -1.000000
vn 0.000000 0.000000 1.000000
vn -1.000000 0.000000 0.000000
vn 1.000000 0.000000 0.000000
vn 0.000000 -1.000000 0.000000
vn 0.000000 1.000000 0.000000
vn 0.000000 0.000000 -1.000000
vn 0.000000 0.000000 1.000000
vn -1.000000 0.000000 0.000000
vn 1.000000 0.000000 0.000000
vn 0.000000 -1.000000 0.000000
vn 0.000000 1.000000 0.000000
vn 0.000000 0.000000 -1.000000
vn 0.000000 0.000000 1.000000
vn -1.000000 0.000000 0.000000
vn 1.000000 0.000000 0.000000
vn 0.000000 -1.000000 0.000000
vn 0.000000 1.000000 0.000000
vn 0.000000 0.000000 -1.000000
vn 0.000000 0.000000 1.000000
vn -1.000000 0.000000 0.000000
vn 1.000000 0.000000 0.000000
vn 0.000000 -1.000000 0.000000
vn 0.000000 1.000000 0.000000
vn 0.000000 0.000000 -1.000000
vn 0.000000 0.000000 1.000000
vn -1.000000 0.000000 0.000000
vn 1.000000 0.000000 0.000000
vn -0.382181 0.019599 -0.923880
vn -0.922667 0.047316 -0.382683
vn -0.922667 0.047316 0.382683
vn -0.382181 0.019599 0.923880
vn 0.382181 -0.019599 0.923880
vn 0.922667 -0.047316 0.382683
vn 0.922667 -0.047316 -0.382683
vn 0.382181 -0.019599 -0.923880
vn -0.051215 -0.998688 0.000000
vn 0.051215 0.998688 -0.000000
vn -0.375323 0.017608 -0.926727
vn -0.906111 -0.141349 -0.398727
vn -0.906111 -0.217506 0.362841
vn -0.375323 -0.166251 0.911862
vn 0.375323 -0.017608 0.926727
vn 0.906111 0.141349 0.398727
vn 0.906111 0.217506 -0.362841
vn 0.375323 0.166251 -0.911862
vn 0.195180 -0.975900 -0.097590
vn -0.195180 0.975900 0.097590
vn 0.000000 -1.000000 0.000000
vn 0.000000 1.000000 0.000000
vn 0.000000 0.000000 -1.000000
vn 0.000000 0.000000 1.000000
vn -1.000000 0.000000 0.000000
vn 1.000000 0.000000 0.000000
vn 0.000000 -1.000000 0.000000
vn 0.000000 1.000000 0.000000
vn -0.484810 0.000000 -0.874620
vn 0.484810 0.000000 0.874620
vn -0.874620 0.000000 0.484810
vn 0.874620 0.000000 -0.484810
vn 0.000000 -1.000000 0.000000
vn -0.000000 1.000000 0.000000
vn -0.848048 0.000000 -0.529919
vn 0.848048 0.000000 0.529919
vn -0.529919 0.000000 0.848048
vn 0.529919 0.000000 -0.848048
vn 0.000000 -1.000000 0.000000
vn -0.000000 1.000000 0.000000
vn -0.998630 0.000000 -0.052336
vn 0.998630 0.000000 0.052336
vn -0.052336 0.000000 0.998630
vn 0.052336 0.000000 -0.998630
vn 0.000000 -1.000000 0.000000
vn 0.000000 1.000000 0.000000
vn -0.438371 0.000000 -0.898794
vn 0.438371 0.000000 0.898794
vn -0.898794 0.000000 0.438371
vn 0.898794 0.000000 -0.438371
vn 0.000000 -1.000000 0.000000
vn -0.000000 1.000000 0.000000
vn -0.819152 0.000000 -0.573576
vn 0.819152 0.000000 0.573576
vn -0.573576 0.000000 0.819152
vn 0.573576 0.000000 -0.819152
vn 0.000000 -1.000000 0.000000
vn -0.000000 1.000000 0.000000
vn -0.994522 0.000000 -0.104528
vn 0.994522 0.000000 0.104528
vn -0.104528 0.000000 0.994522
vn 0.104528 0.000000 -0.994522
vn 0.000000 -1.000000 0.000000
vn 0.000000 1.000000 0.000000
vn -0.390731 0.000000 -0.920505
vn 0.390731 0.000000 0.920505
vn -0.920505 0.000000 0.390731
vn 0.920505 0.000000 -0.390731
vn 0.000000 -1.000000 0.000000
vn -0.000000 1.000000 0.000000
vn -0.788011 0.000000 -0.615661
vn 0.788011 0.000000 0.615661
vn -0.615661 0.000000 0.788011
vn 0.615661 0.000000 -0.788011
vn 0.000000 -1.000000 0.000000
vn -0.000000 1.000000 0.000000
vn -0.987688 0.000000 -0.156434
vn 0.987688 0.000000 0.156434
vn -0.156434 0.000000 0.987688
vn 0.156434 0.000000 -0.987688
vn 0.000000 -1.000000 0.000000
vn 0.000000 1.000000 0.000000
vn -0.342020 0.000000 -0.939693
vn 0.342020 0.000000 0.939693
vn -0.939693 0.000000 0.342020
vn 0.939693 0.000000 -0.342020
vn 0.000000 -1.000000 0.000000
vn -0.000000 1.000000 0.000000
vn -0.754710 0.000000 -0.656059
vn 0.754710 0.000000 0.656059
vn -0.656059 0.000000 0.754710
vn 0.656059 0.000000 -0.754710
s off
g Architecture
usemtl MR_Concrete
f 1//1 2//1 3//1 4//1
f 5//2 8//2 7//2 6//2
f 1//3 5//3 6//3 2//3
f 4//4 3//4 7//4 8//4
f 1//5 4//5 8//5 5//5
f 2//6 6//6 7//6 3//6
f 9//7 10//7 11//7 12//7
f 13//8 16//8 15//8 14//8
f 9//9 13//9 14//9 10//9
f 12//10 11//10 15//10 16//10
f 9//11 12//11 16//11 13//11
f 10//12 14//12 15//12 11//12
usemtl MR_ConcreteDark
f 17//13 18//13 19//13 20//13
f 21//14 24//14 23//14 22//14
f 17//15 21//15 22//15 18//15
f 20//16 19//16 23//16 24//16
f 17//17 20//17 24//17 21//17
f 18//18 22//18 23//18 19//18
f 25//19 26//19 27//19 28//19
f 29//20 32//20 31//20 30//20
f 25//21 29//21 30//21 26//21
f 28//22 27//22 31//22 32//22
f 25//23 28//23 32//23 29//23
f 26//24 30//24 31//24 27//24
g Facade
usemtl MR_SecondaryMetal
f 33//25 34//25 35//25 36//25
f 37//26 40//26 39//26 38//26
f 33//27 37//27 38//27 34//27
f 36//28 35//28 39//28 40//28
f 33//29 36//29 40//29 37//29
f 34//30 38//30 39//30 35//30
f 41//31 42//31 43//31 44//31
f 45//32 48//32 47//32 46//32
f 41//33 45//33 46//33 42//33
f 44//34 43//34 47//34 48//34
f 41//35 44//35 48//35 45//35
f 42//36 46//36 47//36 43//36
f 49//37 50//37 51//37 52//37
f 53//38 56//38 55//38 54//38
f 49//39 53//39 54//39 50//39
f 52//40 51//40 55//40 56//40
f 49//41 52//41 56//41 53//41
f 50//42 54//42 55//42 51//42
f 57//43 58//43 59//43 60//43
f 61//44 64//44 63//44 62//44
f 57//45 61//45 62//45 58//45
f 60//46 59//46 63//46 64//46
f 57//47 60//47 64//47 61//47
f 58//48 62//48 63//48 59//48
f 65//49 66//49 67//49 68//49
f 69//50 72//50 71//50 70//50
f 65//51 69//51 70//51 66//51
f 68//52 67//52 71//52 72//52
f 65//53 68//53 72//53 69//53
f 66//54 70//54 71//54 67//54
f 73//55 74//55 75//55 76//55
f 77//56 80//56 79//56 78//56
f 73//57 77//57 78//57 74//57
f 76//58 75//58 79//58 80//58
f 73//59 76//59 80//59 77//59
f 74//60 78//60 79//60 75//60
g WindowsLower
usemtl MR_DimCyan
f 81//61 82//61 83//61 84//61
f 85//62 88//62 87//62 86//62
f 81//63 85//63 86//63 82//63
f 84//64 83//64 87//64 88//64
f 81//65 84//65 88//65 85//65
f 82//66 86//66 87//66 83//66
usemtl MR_WindowDark
f 89//67 90//67 91//67 92//67
f 93//68 96//68 95//68 94//68
f 89//69 93//69 94//69 90//69
f 92//70 91//70 95//70 96//70
f 89//71 92//71 96//71 93//71
f 90//72 94//72 95//72 91//72
f 97//73 98//73 99//73 100//73
f 101//74 104//74 103//74 102//74
f 97//75 101//75 102//75 98//75
f 100//76 99//76 103//76 104//76
f 97//77 100//77 104//77 101//77
f 98//78 102//78 103//78 99//78
f 105//79 106//79 107//79 108//79
f 109//80 112//80 111//80 110//80
f 105//81 109//81 110//81 106//81
f 108//82 107//82 111//82 112//82
f 105//83 108//83 112//83 109//83
f 106//84 110//84 111//84 107//84
f 113//85 114//85 115//85 116//85
f 117//86 120//86 119//86 118//86
f 113//87 117//87 118//87 114//87
f 116//88 115//88 119//88 120//88
f 113//89 116//89 120//89 117//89
f 114//90 118//90 119//90 115//90
f 121//91 122//91 123//91 124//91
f 125//92 128//92 127//92 126//92
f 121//93 125//93 126//93 122//93
f 124//94 123//94 127//94 128//94
f 121//95 124//95 128//95 125//95
f 122//96 126//96 127//96 123//96
f 129//97 130//97 131//97 132//97
f 133//98 136//98 135//98 134//98
f 129//99 133//99 134//99 130//99
f 132//100 131//100 135//100 136//100
f 129//101 132//101 136//101 133//101
f 130//102 134//102 135//102 131//102
f 137//103 138//103 139//103 140//103
f 141//104 144//104 143//104 142//104
f 137//105 141//105 142//105 138//105
f 140//106 139//106 143//106 144//106
f 137//107 140//107 144//107 141//107
f 138//108 142//108 143//108 139//108
f 145//109 146//109 147//109 148//109
f 149//110 152//110 151//110 150//110
f 145//111 149//111 150//111 146//111
f 148//112 147//112 151//112 152//112
f 145//113 148//113 152//113 149//113
f 146//114 150//114 151//114 147//114
usemtl MR_DimCyan
f 153//115 154//115 155//115 156//115
f 157//116 160//116 159//116 158//116
f 153//117 157//117 158//117 154//117
f 156//118 155//118 159//118 160//118
f 153//119 156//119 160//119 157//119
f 154//120 158//120 159//120 155//120
usemtl MR_WindowDark
f 161//121 162//121 163//121 164//121
f 165//122 168//122 167//122 166//122
f 161//123 165//123 166//123 162//123
f 164//124 163//124 167//124 168//124
f 161//125 164//125 168//125 165//125
f 162//126 166//126 167//126 163//126
f 169//127 170//127 171//127 172//127
f 173//128 176//128 175//128 174//128
f 169//129 173//129 174//129 170//129
f 172//130 171//130 175//130 176//130
f 169//131 172//131 176//131 173//131
f 170//132 174//132 175//132 171//132
f 177//133 178//133 179//133 180//133
f 181//134 184//134 183//134 182//134
f 177//135 181//135 182//135 178//135
f 180//136 179//136 183//136 184//136
f 177//137 180//137 184//137 181//137
f 178//138 182//138 183//138 179//138
f 185//139 186//139 187//139 188//139
f 189//140 192//140 191//140 190//140
f 185//141 189//141 190//141 186//141
f 188//142 187//142 191//142 192//142
f 185//143 188//143 192//143 189//143
f 186//144 190//144 191//144 187//144
f 193//145 194//145 195//145 196//145
f 197//146 200//146 199//146 198//146
f 193//147 197//147 198//147 194//147
f 196//148 195//148 199//148 200//148
f 193//149 196//149 200//149 197//149
f 194//150 198//150 199//150 195//150
f 201//151 202//151 203//151 204//151
f 205//152 208//152 207//152 206//152
f 201//153 205//153 206//153 202//153
f 204//154 203//154 207//154 208//154
f 201//155 204//155 208//155 205//155
f 202//156 206//156 207//156 203//156
f 209//157 210//157 211//157 212//157
f 213//158 216//158 215//158 214//158
f 209//159 213//159 214//159 210//159
f 212//160 211//160 215//160 216//160
f 209//161 212//161 216//161 213//161
f 210//162 214//162 215//162 211//162
f 217//163 218//163 219//163 220//163
f 221//164 224//164 223//164 222//164
f 217//165 221//165 222//165 218//165
f 220//166 219//166 223//166 224//166
f 217//167 220//167 224//167 221//167
f 218//168 222//168 223//168 219//168
usemtl MR_DimCyan
f 225//169 226//169 227//169 228//169
f 229//170 232//170 231//170 230//170
f 225//171 229//171 230//171 226//171
f 228//172 227//172 231//172 232//172
f 225//173 228//173 232//173 229//173
f 226//174 230//174 231//174 227//174
usemtl MR_WindowDark
f 233//175 234//175 235//175 236//175
f 237//176 240//176 239//176 238//176
f 233//177 237//177 238//177 234//177
f 236//178 235//178 239//178 240//178
f 233//179 236//179 240//179 237//179
f 234//180 238//180 239//180 235//180
g WindowsUpper
usemtl MR_DimCyan
f 241//181 242//181 243//181 244//181
f 245//182 248//182 247//182 246//182
f 241//183 245//183 246//183 242//183
f 244//184 243//184 247//184 248//184
f 241//185 244//185 248//185 245//185
f 242//186 246//186 247//186 243//186
usemtl MR_WindowDark
f 249//187 250//187 251//187 252//187
f 253//188 256//188 255//188 254//188
f 249//189 253//189 254//189 250//189
f 252//190 251//190 255//190 256//190
f 249//191 252//191 256//191 253//191
f 250//192 254//192 255//192 251//192
f 257//193 258//193 259//193 260//193
f 261//194 264//194 263//194 262//194
f 257//195 261//195 262//195 258//195
f 260//196 259//196 263//196 264//196
f 257//197 260//197 264//197 261//197
f 258//198 262//198 263//198 259//198
f 265//199 266//199 267//199 268//199
f 269//200 272//200 271//200 270//200
f 265//201 269//201 270//201 266//201
f 268//202 267//202 271//202 272//202
f 265//203 268//203 272//203 269//203
f 266//204 270//204 271//204 267//204
f 273//205 274//205 275//205 276//205
f 277//206 280//206 279//206 278//206
f 273//207 277//207 278//207 274//207
f 276//208 275//208 279//208 280//208
f 273//209 276//209 280//209 277//209
f 274//210 278//210 279//210 275//210
f 281//211 282//211 283//211 284//211
f 285//212 288//212 287//212 286//212
f 281//213 285//213 286//213 282//213
f 284//214 283//214 287//214 288//214
f 281//215 284//215 288//215 285//215
f 282//216 286//216 287//216 283//216
usemtl MR_DimCyan
f 289//217 290//217 291//217 292//217
f 293//218 296//218 295//218 294//218
f 289//219 293//219 294//219 290//219
f 292//220 291//220 295//220 296//220
f 289//221 292//221 296//221 293//221
f 290//222 294//222 295//222 291//222
usemtl MR_WindowDark
f 297//223 298//223 299//223 300//223
f 301//224 304//224 303//224 302//224
f 297//225 301//225 302//225 298//225
f 300//226 299//226 303//226 304//226
f 297//227 300//227 304//227 301//227
f 298//228 302//228 303//228 299//228
f 305//229 306//229 307//229 308//229
f 309//230 312//230 311//230 310//230
f 305//231 309//231 310//231 306//231
f 308//232 307//232 311//232 312//232
f 305//233 308//233 312//233 309//233
f 306//234 310//234 311//234 307//234
f 313//235 314//235 315//235 316//235
f 317//236 320//236 319//236 318//236
f 313//237 317//237 318//237 314//237
f 316//238 315//238 319//238 320//238
f 313//239 316//239 320//239 317//239
f 314//240 318//240 319//240 315//240
f 321//241 322//241 323//241 324//241
f 325//242 328//242 327//242 326//242
f 321//243 325//243 326//243 322//243
f 324//244 323//244 327//244 328//244
f 321//245 324//245 328//245 325//245
f 322//246 326//246 327//246 323//246
f 329//247 330//247 331//247 332//247
f 333//248 336//248 335//248 334//248
f 329//249 333//249 334//249 330//249
f 332//250 331//250 335//250 336//250
f 329//251 332//251 336//251 333//251
f 330//252 334//252 335//252 331//252
usemtl MR_DimCyan
f 337//253 338//253 339//253 340//253
f 341//254 344//254 343//254 342//254
f 337//255 341//255 342//255 338//255
f 340//256 339//256 343//256 344//256
f 337//257 340//257 344//257 341//257
f 338//258 342//258 343//258 339//258
usemtl MR_WindowDark
f 345//259 346//259 347//259 348//259
f 349//260 352//260 351//260 350//260
f 345//261 349//261 350//261 346//261
f 348//262 347//262 351//262 352//262
f 345//263 348//263 352//263 349//263
f 346//264 350//264 351//264 347//264
f 353//265 354//265 355//265 356//265
f 357//266 360//266 359//266 358//266
f 353//267 357//267 358//267 354//267
f 356//268 355//268 359//268 360//268
f 353//269 356//269 360//269 357//269
f 354//270 358//270 359//270 355//270
g CyanLights
usemtl MR_CyanEmission
f 361//271 362//271 363//271 364//271
f 365//272 368//272 367//272 366//272
f 361//273 365//273 366//273 362//273
f 364//274 363//274 367//274 368//274
f 361//275 364//275 368//275 365//275
f 362//276 366//276 367//276 363//276
g Entrance
usemtl MR_WindowDark
f 369//277 370//277 371//277 372//277
f 373//278 376//278 375//278 374//278
f 369//279 373//279 374//279 370//279
f 372//280 371//280 375//280 376//280
f 369//281 372//281 376//281 373//281
f 370//282 374//282 375//282 371//282
g Props
usemtl MR_SecondaryMetal
f 377//283 378//283 386//283 385//283
f 378//284 379//284 387//284 386//284
f 379//285 380//285 388//285 387//285
f 380//286 381//286 389//286 388//286
f 381//287 382//287 390//287 389//287
f 382//288 383//288 391//288 390//288
f 383//289 384//289 392//289 391//289
f 384//290 377//290 385//290 392//290
f 384//291 383//291 382//291 381//291 380//291 379//291 378//291 377//291
f 385//292 386//292 387//292 388//292 389//292 390//292 391//292 392//292
g Damage
usemtl MR_Rust
f 393//293 394//293 402//293 401//293
f 394//294 395//294 403//294 402//294
f 395//295 396//295 404//295 403//295
f 396//296 397//296 405//296 404//296
f 397//297 398//297 406//297 405//297
f 398//298 399//298 407//298 406//298
f 399//299 400//299 408//299 407//299
f 400//300 393//300 401//300 408//300
f 400//301 399//301 398//301 397//301 396//301 395//301 394//301 393//301
f 401//302 402//302 403//302 404//302 405//302 406//302 407//302 408//302
g Debris
f 409//303 410//303 411//303 412//303
f 413//304 416//304 415//304 414//304
f 409//305 413//305 414//305 410//305
f 412//306 411//306 415//306 416//306
f 409//307 412//307 416//307 413//307
f 410//308 414//308 415//308 411//308
usemtl MR_Debris
f 417//309 418//309 419//309 420//309
f 421//310 424//310 423//310 422//310
f 417//311 421//311 422//311 418//311
f 420//312 419//312 423//312 424//312
f 417//313 420//313 424//313 421//313
f 418//314 422//314 423//314 419//314
f 425//315 426//315 427//315 428//315
f 429//316 432//316 431//316 430//316
f 425//317 429//317 430//317 426//317
f 428//318 427//318 431//318 432//318
f 425//319 428//319 432//319 429//319
f 426//320 430//320 431//320 427//320
f 433//321 434//321 435//321 436//321
f 437//322 440//322 439//322 438//322
f 433//323 437//323 438//323 434//323
f 436//324 435//324 439//324 440//324
f 433//325 436//325 440//325 437//325
f 434//326 438//326 439//326 435//326
usemtl MR_Rust
f 441//327 442//327 443//327 444//327
f 445//328 448//328 447//328 446//328
f 441//329 445//329 446//329 442//329
f 444//330 443//330 447//330 448//330
f 441//331 444//331 448//331 445//331
f 442//332 446//332 447//332 443//332
usemtl MR_Debris
f 449//333 450//333 451//333 452//333
f 453//334 456//334 455//334 454//334
f 449//335 453//335 454//335 450//335
f 452//336 451//336 455//336 456//336
f 449//337 452//337 456//337 453//337
f 450//338 454//338 455//338 451//338
f 457//339 458//339 459//339 460//339
f 461//340 464//340 463//340 462//340
f 457//341 461//341 462//341 458//341
f 460//342 459//342 463//342 464//342
f 457//343 460//343 464//343 461//343
f 458//344 462//344 463//344 459//344
f 465//345 466//345 467//345 468//345
f 469//346 472//346 471//346 470//346
f 465//347 469//347 470//347 466//347
f 468//348 467//348 471//348 472//348
f 465//349 468//349 472//349 469//349
f 466//350 470//350 471//350 467//350
usemtl MR_Rust
f 473//351 474//351 475//351 476//351
f 477//352 480//352 479//352 478//352
f 473//353 477//353 478//353 474//353
f 476//354 475//354 479//354 480//354
f 473//355 476//355 480//355 477//355
f 474//356 478//356 479//356 475//356
usemtl MR_Debris
f 481//357 482//357 483//357 484//357
f 485//358 488//358 487//358 486//358
f 481//359 485//359 486//359 482//359
f 484//360 483//360 487//360 488//360
f 481//361 484//361 488//361 485//361
f 482//362 486//362 487//362 483//362
f 489//363 490//363 491//363 492//363
f 493//364 496//364 495//364 494//364
f 489//365 493//365 494//365 490//365
f 492//366 491//366 495//366 496//366
f 489//367 492//367 496//367 493//367
f 490//368 494//368 495//368 491//368
f 497//369 498//369 499//369 500//369
f 501//370 504//370 503//370 502//370
f 497//371 501//371 502//371 498//371
f 500//372 499//372 503//372 504//372
f 497//373 500//373 504//373 501//373
f 498//374 502//374 503//374 499//374
